  0
SECTION
  2
BLOCKS
  0
ENDSEC
  0
SECTION
  2
ENTITIES
  0
LINE
  8
0
 10
2000
 20
150
 11
0
 21
150
  0
LINE
  8
0
 10
0
 20
150
 11
0
 21
0
  0
LINE
  8
0
 10
0
 20
0
 11
2000
 21
0
  0
LINE
  8
0
 10
2000
 20
0
 11
2000
 21
150
  0
LINE
  8
0
 10
1243.9
 20
23.2504
 11
1241.37
 21
23.5628
  0
LINE
  8
0
 10
1241.37
 20
23.5628
 11
1238.86
 21
23.9992
  0
LINE
  8
0
 10
1238.86
 20
23.9992
 11
1236.36
 21
24.5584
  0
LINE
  8
0
 10
1236.36
 20
24.5584
 11
1233.91
 21
25.2391
  0
LINE
  8
0
 10
1233.91
 20
25.2391
 11
1231.48
 21
26.0397
  0
LINE
  8
0
 10
1231.48
 20
26.0397
 11
1229.1
 21
26.9583
  0
LINE
  8
0
 10
1229.1
 20
26.9583
 11
1226.77
 21
27.9926
  0
LINE
  8
0
 10
1226.77
 20
27.9926
 11
1224.49
 21
29.1401
  0
LINE
  8
0
 10
1224.49
 20
29.1401
 11
1222.27
 21
30.3981
  0
LINE
  8
0
 10
1222.27
 20
30.3981
 11
1220.11
 21
31.7636
  0
LINE
  8
0
 10
1220.11
 20
31.7636
 11
1218.02
 21
33.2332
  0
LINE
  8
0
 10
1218.02
 20
33.2332
 11
1216.01
 21
34.8035
  0
LINE
  8
0
 10
1216.01
 20
34.8035
 11
1214.08
 21
36.4705
  0
LINE
  8
0
 10
1214.08
 20
36.4705
 11
1212.23
 21
38.2304
  0
LINE
  8
0
 10
1212.23
 20
38.2304
 11
1210.47
 21
40.0789
  0
LINE
  8
0
 10
1210.47
 20
40.0789
 11
1208.8
 21
42.0116
  0
LINE
  8
0
 10
1208.8
 20
42.0116
 11
1207.23
 21
44.0236
  0
LINE
  8
0
 10
1207.23
 20
44.0236
 11
1205.76
 21
46.1103
  0
LINE
  8
0
 10
1205.76
 20
46.1103
 11
1204.4
 21
48.2666
  0
LINE
  8
0
 10
1204.4
 20
48.2666
 11
1203.14
 21
50.4874
  0
LINE
  8
0
 10
1203.14
 20
50.4874
 11
1201.99
 21
52.7671
  0
LINE
  8
0
 10
1201.99
 20
52.7671
 11
1200.96
 21
55.1005
  0
LINE
  8
0
 10
1200.96
 20
55.1005
 11
1200.04
 21
57.4817
  0
LINE
  8
0
 10
1200.04
 20
57.4817
 11
1199.24
 21
59.9052
  0
LINE
  8
0
 10
1199.24
 20
59.9052
 11
1198.56
 21
62.365
  0
LINE
  8
0
 10
1198.56
 20
62.365
 11
1198
 21
64.8553
  0
LINE
  8
0
 10
1198
 20
64.8553
 11
1197.56
 21
67.37
  0
LINE
  8
0
 10
1197.56
 20
67.37
 11
1197.25
 21
69.9031
  0
LINE
  8
0
 10
1197.25
 20
69.9031
 11
1197.06
 21
72.4485
  0
LINE
  8
0
 10
1197.06
 20
72.4485
 11
1197
 21
75
  0
LINE
  8
0
 10
1197
 20
75
 11
1197.06
 21
77.5515
  0
LINE
  8
0
 10
1197.06
 20
77.5515
 11
1197.25
 21
80.0969
  0
LINE
  8
0
 10
1197.25
 20
80.0969
 11
1197.56
 21
82.63
  0
LINE
  8
0
 10
1197.56
 20
82.63
 11
1198
 21
85.1447
  0
LINE
  8
0
 10
1198
 20
85.1447
 11
1198.56
 21
87.635
  0
LINE
  8
0
 10
1198.56
 20
87.635
 11
1199.24
 21
90.0948
  0
LINE
  8
0
 10
1199.24
 20
90.0948
 11
1200.04
 21
92.5183
  0
LINE
  8
0
 10
1200.04
 20
92.5183
 11
1200.96
 21
94.8995
  0
LINE
  8
0
 10
1200.96
 20
94.8995
 11
1201.99
 21
97.2329
  0
LINE
  8
0
 10
1201.99
 20
97.2329
 11
1203.14
 21
99.5126
  0
LINE
  8
0
 10
1203.14
 20
99.5126
 11
1204.4
 21
101.733
  0
LINE
  8
0
 10
1204.4
 20
101.733
 11
1205.76
 21
103.89
  0
LINE
  8
0
 10
1205.76
 20
103.89
 11
1207.23
 21
105.976
  0
LINE
  8
0
 10
1207.23
 20
105.976
 11
1208.8
 21
107.988
  0
LINE
  8
0
 10
1208.8
 20
107.988
 11
1210.47
 21
109.921
  0
LINE
  8
0
 10
1210.47
 20
109.921
 11
1212.23
 21
111.77
  0
LINE
  8
0
 10
1212.23
 20
111.77
 11
1214.08
 21
113.529
  0
LINE
  8
0
 10
1214.08
 20
113.529
 11
1216.01
 21
115.197
  0
LINE
  8
0
 10
1216.01
 20
115.197
 11
1218.02
 21
116.767
  0
LINE
  8
0
 10
1218.02
 20
116.767
 11
1220.11
 21
118.236
  0
LINE
  8
0
 10
1220.11
 20
118.236
 11
1222.27
 21
119.602
  0
LINE
  8
0
 10
1222.27
 20
119.602
 11
1224.49
 21
120.86
  0
LINE
  8
0
 10
1224.49
 20
120.86
 11
1226.77
 21
122.007
  0
LINE
  8
0
 10
1226.77
 20
122.007
 11
1229.1
 21
123.042
  0
LINE
  8
0
 10
1229.1
 20
123.042
 11
1231.48
 21
123.96
  0
LINE
  8
0
 10
1231.48
 20
123.96
 11
1233.91
 21
124.761
  0
LINE
  8
0
 10
1233.91
 20
124.761
 11
1236.36
 21
125.442
  0
LINE
  8
0
 10
1236.36
 20
125.442
 11
1238.86
 21
126.001
  0
LINE
  8
0
 10
1238.86
 20
126.001
 11
1241.37
 21
126.437
  0
LINE
  8
0
 10
1241.37
 20
126.437
 11
1243.9
 21
126.75
  0
LINE
  8
0
 10
1243.9
 20
126.75
 11
1246
 21
126.904
  0
LINE
  8
0
 10
1246
 20
126.904
 11
1246
 21
23.0957
  0
LINE
  8
0
 10
1246
 20
23.0957
 11
1243.9
 21
23.2504
  0
LINE
  8
0
 10
470.903
 20
23.2504
 11
468.37
 21
23.5628
  0
LINE
  8
0
 10
468.37
 20
23.5628
 11
465.855
 21
23.9992
  0
LINE
  8
0
 10
465.855
 20
23.9992
 11
463.365
 21
24.5584
  0
LINE
  8
0
 10
463.365
 20
24.5584
 11
460.905
 21
25.2391
  0
LINE
  8
0
 10
460.905
 20
25.2391
 11
458.482
 21
26.0397
  0
LINE
  8
0
 10
458.482
 20
26.0397
 11
458
 21
26.2255
  0
LINE
  8
0
 10
458
 20
26.2255
 11
458
 21
123.774
  0
LINE
  8
0
 10
458
 20
123.774
 11
458.482
 21
123.96
  0
LINE
  8
0
 10
458.482
 20
123.96
 11
460.905
 21
124.761
  0
LINE
  8
0
 10
460.905
 20
124.761
 11
463.365
 21
125.442
  0
LINE
  8
0
 10
463.365
 20
125.442
 11
465.855
 21
126.001
  0
LINE
  8
0
 10
465.855
 20
126.001
 11
468.37
 21
126.437
  0
LINE
  8
0
 10
468.37
 20
126.437
 11
470.903
 21
126.75
  0
LINE
  8
0
 10
470.903
 20
126.75
 11
472
 21
126.831
  0
LINE
  8
0
 10
472
 20
126.831
 11
472
 21
23.1695
  0
LINE
  8
0
 10
472
 20
23.1695
 11
470.903
 21
23.2504
  0
LINE
  8
0
 10
480
 20
126.831
 11
481.097
 21
126.75
  0
LINE
  8
0
 10
481.097
 20
126.75
 11
483.63
 21
126.437
  0
LINE
  8
0
 10
483.63
 20
126.437
 11
486.145
 21
126.001
  0
LINE
  8
0
 10
486.145
 20
126.001
 11
488.635
 21
125.442
  0
LINE
  8
0
 10
488.635
 20
125.442
 11
491.095
 21
124.761
  0
LINE
  8
0
 10
491.095
 20
124.761
 11
493.518
 21
123.96
  0
LINE
  8
0
 10
493.518
 20
123.96
 11
495.9
 21
123.042
  0
LINE
  8
0
 10
495.9
 20
123.042
 11
498.233
 21
122.007
  0
LINE
  8
0
 10
498.233
 20
122.007
 11
500.513
 21
120.86
  0
LINE
  8
0
 10
500.513
 20
120.86
 11
502.733
 21
119.602
  0
LINE
  8
0
 10
502.733
 20
119.602
 11
504.89
 21
118.236
  0
LINE
  8
0
 10
504.89
 20
118.236
 11
506.976
 21
116.767
  0
LINE
  8
0
 10
506.976
 20
116.767
 11
508.988
 21
115.197
  0
LINE
  8
0
 10
508.988
 20
115.197
 11
510.921
 21
113.529
  0
LINE
  8
0
 10
510.921
 20
113.529
 11
512.77
 21
111.77
  0
LINE
  8
0
 10
512.77
 20
111.77
 11
514.529
 21
109.921
  0
LINE
  8
0
 10
514.529
 20
109.921
 11
516.197
 21
107.988
  0
LINE
  8
0
 10
516.197
 20
107.988
 11
517.767
 21
105.976
  0
LINE
  8
0
 10
517.767
 20
105.976
 11
519.236
 21
103.89
  0
LINE
  8
0
 10
519.236
 20
103.89
 11
520.602
 21
101.733
  0
LINE
  8
0
 10
520.602
 20
101.733
 11
521.86
 21
99.5126
  0
LINE
  8
0
 10
521.86
 20
99.5126
 11
523.007
 21
97.2329
  0
LINE
  8
0
 10
523.007
 20
97.2329
 11
524.042
 21
94.8995
  0
LINE
  8
0
 10
524.042
 20
94.8995
 11
524.96
 21
92.5183
  0
LINE
  8
0
 10
524.96
 20
92.5183
 11
525.761
 21
90.0948
  0
LINE
  8
0
 10
525.761
 20
90.0948
 11
526.442
 21
87.635
  0
LINE
  8
0
 10
526.442
 20
87.635
 11
527.001
 21
85.1447
  0
LINE
  8
0
 10
527.001
 20
85.1447
 11
527.437
 21
82.63
  0
LINE
  8
0
 10
527.437
 20
82.63
 11
527.75
 21
80.0969
  0
LINE
  8
0
 10
527.75
 20
80.0969
 11
527.937
 21
77.5515
  0
LINE
  8
0
 10
527.937
 20
77.5515
 11
528
 21
75
  0
LINE
  8
0
 10
528
 20
75
 11
527.937
 21
72.4485
  0
LINE
  8
0
 10
527.937
 20
72.4485
 11
527.75
 21
69.9031
  0
LINE
  8
0
 10
527.75
 20
69.9031
 11
527.437
 21
67.37
  0
LINE
  8
0
 10
527.437
 20
67.37
 11
527.001
 21
64.8553
  0
LINE
  8
0
 10
527.001
 20
64.8553
 11
526.442
 21
62.365
  0
LINE
  8
0
 10
526.442
 20
62.365
 11
525.761
 21
59.9052
  0
LINE
  8
0
 10
525.761
 20
59.9052
 11
524.96
 21
57.4817
  0
LINE
  8
0
 10
524.96
 20
57.4817
 11
524.042
 21
55.1005
  0
LINE
  8
0
 10
524.042
 20
55.1005
 11
523.007
 21
52.7671
  0
LINE
  8
0
 10
523.007
 20
52.7671
 11
521.86
 21
50.4874
  0
LINE
  8
0
 10
521.86
 20
50.4874
 11
520.602
 21
48.2666
  0
LINE
  8
0
 10
520.602
 20
48.2666
 11
519.236
 21
46.1103
  0
LINE
  8
0
 10
519.236
 20
46.1103
 11
517.767
 21
44.0236
  0
LINE
  8
0
 10
517.767
 20
44.0236
 11
516.197
 21
42.0116
  0
LINE
  8
0
 10
516.197
 20
42.0116
 11
514.529
 21
40.0789
  0
LINE
  8
0
 10
514.529
 20
40.0789
 11
512.77
 21
38.2304
  0
LINE
  8
0
 10
512.77
 20
38.2304
 11
510.921
 21
36.4705
  0
LINE
  8
0
 10
510.921
 20
36.4705
 11
508.988
 21
34.8035
  0
LINE
  8
0
 10
508.988
 20
34.8035
 11
506.976
 21
33.2332
  0
LINE
  8
0
 10
506.976
 20
33.2332
 11
504.89
 21
31.7636
  0
LINE
  8
0
 10
504.89
 20
31.7636
 11
502.733
 21
30.3981
  0
LINE
  8
0
 10
502.733
 20
30.3981
 11
500.513
 21
29.1401
  0
LINE
  8
0
 10
500.513
 20
29.1401
 11
498.233
 21
27.9926
  0
LINE
  8
0
 10
498.233
 20
27.9926
 11
495.9
 21
26.9583
  0
LINE
  8
0
 10
495.9
 20
26.9583
 11
493.518
 21
26.0397
  0
LINE
  8
0
 10
493.518
 20
26.0397
 11
491.095
 21
25.2391
  0
LINE
  8
0
 10
491.095
 20
25.2391
 11
488.635
 21
24.5584
  0
LINE
  8
0
 10
488.635
 20
24.5584
 11
486.145
 21
23.9992
  0
LINE
  8
0
 10
486.145
 20
23.9992
 11
483.63
 21
23.5628
  0
LINE
  8
0
 10
483.63
 20
23.5628
 11
481.097
 21
23.2504
  0
LINE
  8
0
 10
481.097
 20
23.2504
 11
480
 21
23.1695
  0
LINE
  8
0
 10
480
 20
23.1695
 11
480
 21
126.831
  0
LINE
  8
0
 10
1254
 20
126.757
 11
1254.1
 21
126.75
  0
LINE
  8
0
 10
1254.1
 20
126.75
 11
1256.63
 21
126.437
  0
LINE
  8
0
 10
1256.63
 20
126.437
 11
1259.14
 21
126.001
  0
LINE
  8
0
 10
1259.14
 20
126.001
 11
1261.64
 21
125.442
  0
LINE
  8
0
 10
1261.64
 20
125.442
 11
1264.09
 21
124.761
  0
LINE
  8
0
 10
1264.09
 20
124.761
 11
1266
 21
124.132
  0
LINE
  8
0
 10
1266
 20
124.132
 11
1266
 21
25.8685
  0
LINE
  8
0
 10
1266
 20
25.8685
 11
1264.09
 21
25.2391
  0
LINE
  8
0
 10
1264.09
 20
25.2391
 11
1261.64
 21
24.5584
  0
LINE
  8
0
 10
1261.64
 20
24.5584
 11
1259.14
 21
23.9992
  0
LINE
  8
0
 10
1259.14
 20
23.9992
 11
1256.63
 21
23.5628
  0
LINE
  8
0
 10
1256.63
 20
23.5628
 11
1254.1
 21
23.2504
  0
LINE
  8
0
 10
1254.1
 20
23.2504
 11
1254
 21
23.2432
  0
LINE
  8
0
 10
1254
 20
23.2432
 11
1254
 21
126.757
  0
LINE
  8
0
 10
163.835
 20
23.9979
 11
162.593
 21
24.0426
  0
LINE
  8
0
 10
162.593
 20
24.0426
 11
161.369
 21
24.1171
  0
LINE
  8
0
 10
161.369
 20
24.1171
 11
160.162
 21
24.2214
  0
LINE
  8
0
 10
160.162
 20
24.2214
 11
158.973
 21
24.3555
  0
LINE
  8
0
 10
158.973
 20
24.3555
 11
157.801
 21
24.5194
  0
LINE
  8
0
 10
157.801
 20
24.5194
 11
156.647
 21
24.7131
  0
LINE
  8
0
 10
156.647
 20
24.7131
 11
155.51
 21
24.9366
  0
LINE
  8
0
 10
155.51
 20
24.9366
 11
154.391
 21
25.1899
  0
LINE
  8
0
 10
154.391
 20
25.1899
 11
153.29
 21
25.473
  0
LINE
  8
0
 10
153.29
 20
25.473
 11
152.207
 21
25.7858
  0
LINE
  8
0
 10
152.207
 20
25.7858
 11
151.14
 21
26.1285
  0
LINE
  8
0
 10
151.14
 20
26.1285
 11
150.092
 21
26.501
  0
LINE
  8
0
 10
150.092
 20
26.501
 11
149.061
 21
26.9033
  0
LINE
  8
0
 10
149.061
 20
26.9033
 11
148.048
 21
27.3354
  0
LINE
  8
0
 10
148.048
 20
27.3354
 11
147.052
 21
27.7973
  0
LINE
  8
0
 10
147.052
 20
27.7973
 11
146.074
 21
28.289
  0
LINE
  8
0
 10
146.074
 20
28.289
 11
145.118
 21
28.8079
  0
LINE
  8
0
 10
145.118
 20
28.8079
 11
144.187
 21
29.3514
  0
LINE
  8
0
 10
144.187
 20
29.3514
 11
143.282
 21
29.9196
  0
LINE
  8
0
 10
143.282
 20
29.9196
 11
142.403
 21
30.5124
  0
LINE
  8
0
 10
142.403
 20
30.5124
 11
141.55
 21
31.1299
  0
LINE
  8
0
 10
141.55
 20
31.1299
 11
140.723
 21
31.772
  0
LINE
  8
0
 10
140.723
 20
31.772
 11
139.921
 21
32.4387
  0
LINE
  8
0
 10
139.921
 20
32.4387
 11
139.145
 21
33.1301
  0
LINE
  8
0
 10
139.145
 20
33.1301
 11
138.395
 21
33.8461
  0
LINE
  8
0
 10
138.395
 20
33.8461
 11
137.671
 21
34.5867
  0
LINE
  8
0
 10
137.671
 20
34.5867
 11
136.973
 21
35.352
  0
LINE
  8
0
 10
136.973
 20
35.352
 11
136.301
 21
36.1419
  0
LINE
  8
0
 10
136.301
 20
36.1419
 11
135.654
 21
36.9564
  0
LINE
  8
0
 10
135.654
 20
36.9564
 11
135.033
 21
37.7956
  0
LINE
  8
0
 10
135.033
 20
37.7956
 11
134.438
 21
38.6594
  0
LINE
  8
0
 10
134.438
 20
38.6594
 11
133.868
 21
39.5479
  0
LINE
  8
0
 10
133.868
 20
39.5479
 11
133.325
 21
40.461
  0
LINE
  8
0
 10
133.325
 20
40.461
 11
132.81
 21
41.3952
  0
LINE
  8
0
 10
132.81
 20
41.3952
 11
132.326
 21
42.3468
  0
LINE
  8
0
 10
132.326
 20
42.3468
 11
131.874
 21
43.3157
  0
LINE
  8
0
 10
131.874
 20
43.3157
 11
131.453
 21
44.302
  0
LINE
  8
0
 10
131.453
 20
44.302
 11
131.063
 21
45.3056
  0
LINE
  8
0
 10
131.063
 20
45.3056
 11
130.704
 21
46.3266
  0
LINE
  8
0
 10
130.704
 20
46.3266
 11
130.376
 21
47.3649
  0
LINE
  8
0
 10
130.376
 20
47.3649
 11
130.08
 21
48.4206
  0
LINE
  8
0
 10
130.08
 20
48.4206
 11
129.815
 21
49.4937
  0
LINE
  8
0
 10
129.815
 20
49.4937
 11
129.58
 21
50.5841
  0
LINE
  8
0
 10
129.58
 20
50.5841
 11
129.378
 21
51.6919
  0
LINE
  8
0
 10
129.378
 20
51.6919
 11
129.206
 21
52.817
  0
LINE
  8
0
 10
129.206
 20
52.817
 11
129.066
 21
53.9595
  0
LINE
  8
0
 10
129.066
 20
53.9595
 11
128.956
 21
55.1193
  0
LINE
  8
0
 10
128.956
 20
55.1193
 11
128.878
 21
56.2965
  0
LINE
  8
0
 10
128.878
 20
56.2965
 11
128.832
 21
57.4911
  0
LINE
  8
0
 10
128.832
 20
57.4911
 11
128.816
 21
58.703
  0
LINE
  8
0
 10
128.816
 20
58.703
 11
128.816
 21
87.794
  0
LINE
  8
0
 10
128.816
 20
87.794
 11
128.831
 21
89.0773
  0
LINE
  8
0
 10
128.831
 20
89.0773
 11
128.877
 21
90.3423
  0
LINE
  8
0
 10
128.877
 20
90.3423
 11
128.954
 21
91.589
  0
LINE
  8
0
 10
128.954
 20
91.589
 11
129.062
 21
92.8174
  0
LINE
  8
0
 10
129.062
 20
92.8174
 11
129.2
 21
94.0275
  0
LINE
  8
0
 10
129.2
 20
94.0275
 11
129.369
 21
95.2193
  0
LINE
  8
0
 10
129.369
 20
95.2193
 11
129.569
 21
96.3928
  0
LINE
  8
0
 10
129.569
 20
96.3928
 11
129.799
 21
97.548
  0
LINE
  8
0
 10
129.799
 20
97.548
 11
130.061
 21
98.6849
  0
LINE
  8
0
 10
130.061
 20
98.6849
 11
130.353
 21
99.8035
  0
LINE
  8
0
 10
130.353
 20
99.8035
 11
130.675
 21
100.904
  0
LINE
  8
0
 10
130.675
 20
100.904
 11
131.029
 21
101.986
  0
LINE
  8
0
 10
131.029
 20
101.986
 11
131.413
 21
103.049
  0
LINE
  8
0
 10
131.413
 20
103.049
 11
131.828
 21
104.095
  0
LINE
  8
0
 10
131.828
 20
104.095
 11
132.274
 21
105.122
  0
LINE
  8
0
 10
132.274
 20
105.122
 11
132.75
 21
106.131
  0
LINE
  8
0
 10
132.75
 20
106.131
 11
133.257
 21
107.121
  0
LINE
  8
0
 10
133.257
 20
107.121
 11
133.792
 21
108.089
  0
LINE
  8
0
 10
133.792
 20
108.089
 11
134.353
 21
109.031
  0
LINE
  8
0
 10
134.353
 20
109.031
 11
134.94
 21
109.948
  0
LINE
  8
0
 10
134.94
 20
109.948
 11
135.552
 21
110.838
  0
LINE
  8
0
 10
135.552
 20
110.838
 11
136.19
 21
111.702
  0
LINE
  8
0
 10
136.19
 20
111.702
 11
136.853
 21
112.54
  0
LINE
  8
0
 10
136.853
 20
112.54
 11
137.542
 21
113.352
  0
LINE
  8
0
 10
137.542
 20
113.352
 11
138.256
 21
114.138
  0
LINE
  8
0
 10
138.256
 20
114.138
 11
138.996
 21
114.898
  0
LINE
  8
0
 10
138.996
 20
114.898
 11
139.761
 21
115.632
  0
LINE
  8
0
 10
139.761
 20
115.632
 11
140.553
 21
116.339
  0
LINE
  8
0
 10
140.553
 20
116.339
 11
141.369
 21
117.021
  0
LINE
  8
0
 10
141.369
 20
117.021
 11
142.211
 21
117.677
  0
LINE
  8
0
 10
142.211
 20
117.677
 11
143.079
 21
118.306
  0
LINE
  8
0
 10
143.079
 20
118.306
 11
143.973
 21
118.91
  0
LINE
  8
0
 10
143.973
 20
118.91
 11
144.891
 21
119.488
  0
LINE
  8
0
 10
144.891
 20
119.488
 11
145.836
 21
120.039
  0
LINE
  8
0
 10
145.836
 20
120.039
 11
146.802
 21
120.562
  0
LINE
  8
0
 10
146.802
 20
120.562
 11
147.786
 21
121.053
  0
LINE
  8
0
 10
147.786
 20
121.053
 11
148.788
 21
121.512
  0
LINE
  8
0
 10
148.788
 20
121.512
 11
149.808
 21
121.94
  0
LINE
  8
0
 10
149.808
 20
121.94
 11
150.846
 21
122.336
  0
LINE
  8
0
 10
150.846
 20
122.336
 11
151.901
 21
122.7
  0
LINE
  8
0
 10
151.901
 20
122.7
 11
152.975
 21
123.033
  0
LINE
  8
0
 10
152.975
 20
123.033
 11
154.066
 21
123.334
  0
LINE
  8
0
 10
154.066
 20
123.334
 11
155.175
 21
123.603
  0
LINE
  8
0
 10
155.175
 20
123.603
 11
156.301
 21
123.841
  0
LINE
  8
0
 10
156.301
 20
123.841
 11
157.446
 21
124.047
  0
LINE
  8
0
 10
157.446
 20
124.047
 11
158.608
 21
124.221
  0
LINE
  8
0
 10
158.608
 20
124.221
 11
159.789
 21
124.364
  0
LINE
  8
0
 10
159.789
 20
124.364
 11
160.987
 21
124.474
  0
LINE
  8
0
 10
160.987
 20
124.474
 11
162.203
 21
124.554
  0
LINE
  8
0
 10
162.203
 20
124.554
 11
163.436
 21
124.601
  0
LINE
  8
0
 10
163.436
 20
124.601
 11
164.688
 21
124.617
  0
LINE
  8
0
 10
164.688
 20
124.617
 11
165.72
 21
124.604
  0
LINE
  8
0
 10
165.72
 20
124.604
 11
166.744
 21
124.567
  0
LINE
  8
0
 10
166.744
 20
124.567
 11
167.757
 21
124.504
  0
LINE
  8
0
 10
167.757
 20
124.504
 11
168.762
 21
124.416
  0
LINE
  8
0
 10
168.762
 20
124.416
 11
169.756
 21
124.303
  0
LINE
  8
0
 10
169.756
 20
124.303
 11
170.742
 21
124.165
  0
LINE
  8
0
 10
170.742
 20
124.165
 11
171.718
 21
124.002
  0
LINE
  8
0
 10
171.718
 20
124.002
 11
172.685
 21
123.814
  0
LINE
  8
0
 10
172.685
 20
123.814
 11
173.642
 21
123.6
  0
LINE
  8
0
 10
173.642
 20
123.6
 11
174.59
 21
123.362
  0
LINE
  8
0
 10
174.59
 20
123.362
 11
175.529
 21
123.098
  0
LINE
  8
0
 10
175.529
 20
123.098
 11
176.458
 21
122.809
  0
LINE
  8
0
 10
176.458
 20
122.809
 11
177.378
 21
122.495
  0
LINE
  8
0
 10
177.378
 20
122.495
 11
178.288
 21
122.156
  0
LINE
  8
0
 10
178.288
 20
122.156
 11
179.189
 21
121.792
  0
LINE
  8
0
 10
179.189
 20
121.792
 11
180.081
 21
121.403
  0
LINE
  8
0
 10
180.081
 20
121.403
 11
180.963
 21
120.989
  0
LINE
  8
0
 10
180.963
 20
120.989
 11
181.832
 21
120.552
  0
LINE
  8
0
 10
181.832
 20
120.552
 11
182.684
 21
120.094
  0
LINE
  8
0
 10
182.684
 20
120.094
 11
183.519
 21
119.615
  0
LINE
  8
0
 10
183.519
 20
119.615
 11
184.337
 21
119.115
  0
LINE
  8
0
 10
184.337
 20
119.115
 11
185.137
 21
118.594
  0
LINE
  8
0
 10
185.137
 20
118.594
 11
185.92
 21
118.052
  0
LINE
  8
0
 10
185.92
 20
118.052
 11
186.687
 21
117.49
  0
LINE
  8
0
 10
186.687
 20
117.49
 11
187.436
 21
116.906
  0
LINE
  8
0
 10
187.436
 20
116.906
 11
188.168
 21
116.302
  0
LINE
  8
0
 10
188.168
 20
116.302
 11
188.883
 21
115.676
  0
LINE
  8
0
 10
188.883
 20
115.676
 11
189.58
 21
115.03
  0
LINE
  8
0
 10
189.58
 20
115.03
 11
190.261
 21
114.363
  0
LINE
  8
0
 10
190.261
 20
114.363
 11
190.924
 21
113.675
  0
LINE
  8
0
 10
190.924
 20
113.675
 11
191.571
 21
112.967
  0
LINE
  8
0
 10
191.571
 20
112.967
 11
192.2
 21
112.237
  0
LINE
  8
0
 10
192.2
 20
112.237
 11
192.812
 21
111.486
  0
LINE
  8
0
 10
192.812
 20
111.486
 11
193.407
 21
110.715
  0
LINE
  8
0
 10
193.407
 20
110.715
 11
193.982
 21
109.926
  0
LINE
  8
0
 10
193.982
 20
109.926
 11
194.535
 21
109.122
  0
LINE
  8
0
 10
194.535
 20
109.122
 11
195.066
 21
108.304
  0
LINE
  8
0
 10
195.066
 20
108.304
 11
195.574
 21
107.471
  0
LINE
  8
0
 10
195.574
 20
107.471
 11
196.06
 21
106.624
  0
LINE
  8
0
 10
196.06
 20
106.624
 11
196.524
 21
105.762
  0
LINE
  8
0
 10
196.524
 20
105.762
 11
196.965
 21
104.886
  0
LINE
  8
0
 10
196.965
 20
104.886
 11
197.385
 21
103.995
  0
LINE
  8
0
 10
197.385
 20
103.995
 11
197.781
 21
103.089
  0
LINE
  8
0
 10
197.781
 20
103.089
 11
198.156
 21
102.169
  0
LINE
  8
0
 10
198.156
 20
102.169
 11
198.508
 21
101.235
  0
LINE
  8
0
 10
198.508
 20
101.235
 11
198.838
 21
100.286
  0
LINE
  8
0
 10
198.838
 20
100.286
 11
199.146
 21
99.3219
  0
LINE
  8
0
 10
199.146
 20
99.3219
 11
199.431
 21
98.3437
  0
LINE
  8
0
 10
199.431
 20
98.3437
 11
199.695
 21
97.351
  0
LINE
  8
0
 10
199.695
 20
97.351
 11
199.935
 21
96.3438
  0
LINE
  8
0
 10
199.935
 20
96.3438
 11
200.154
 21
95.322
  0
LINE
  8
0
 10
200.154
 20
95.322
 11
180.082
 21
95.322
  0
LINE
  8
0
 10
180.082
 20
95.322
 11
179.958
 21
95.686
  0
LINE
  8
0
 10
179.958
 20
95.686
 11
179.824
 21
96.0441
  0
LINE
  8
0
 10
179.824
 20
96.0441
 11
179.682
 21
96.3964
  0
LINE
  8
0
 10
179.682
 20
96.3964
 11
179.53
 21
96.7428
  0
LINE
  8
0
 10
179.53
 20
96.7428
 11
179.369
 21
97.0833
  0
LINE
  8
0
 10
179.369
 20
97.0833
 11
179.199
 21
97.418
  0
LINE
  8
0
 10
179.199
 20
97.418
 11
179.02
 21
97.7468
  0
LINE
  8
0
 10
179.02
 20
97.7468
 11
178.832
 21
98.0697
  0
LINE
  8
0
 10
178.832
 20
98.0697
 11
178.634
 21
98.3868
  0
LINE
  8
0
 10
178.634
 20
98.3868
 11
178.428
 21
98.698
  0
LINE
  8
0
 10
178.428
 20
98.698
 11
178.212
 21
99.0033
  0
LINE
  8
0
 10
178.212
 20
99.0033
 11
177.987
 21
99.3027
  0
LINE
  8
0
 10
177.987
 20
99.3027
 11
177.753
 21
99.5963
  0
LINE
  8
0
 10
177.753
 20
99.5963
 11
177.51
 21
99.884
  0
LINE
  8
0
 10
177.51
 20
99.884
 11
177.257
 21
100.166
  0
LINE
  8
0
 10
177.257
 20
100.166
 11
176.996
 21
100.442
  0
LINE
  8
0
 10
176.996
 20
100.442
 11
176.725
 21
100.712
  0
LINE
  8
0
 10
176.725
 20
100.712
 11
176.447
 21
100.976
  0
LINE
  8
0
 10
176.447
 20
100.976
 11
176.163
 21
101.232
  0
LINE
  8
0
 10
176.163
 20
101.232
 11
175.874
 21
101.48
  0
LINE
  8
0
 10
175.874
 20
101.48
 11
175.579
 21
101.721
  0
LINE
  8
0
 10
175.579
 20
101.721
 11
175.279
 21
101.955
  0
LINE
  8
0
 10
175.279
 20
101.955
 11
174.972
 21
102.181
  0
LINE
  8
0
 10
174.972
 20
102.181
 11
174.661
 21
102.399
  0
LINE
  8
0
 10
174.661
 20
102.399
 11
174.343
 21
102.61
  0
LINE
  8
0
 10
174.343
 20
102.61
 11
174.02
 21
102.814
  0
LINE
  8
0
 10
174.02
 20
102.814
 11
173.691
 21
103.01
  0
LINE
  8
0
 10
173.691
 20
103.01
 11
173.357
 21
103.198
  0
LINE
  8
0
 10
173.357
 20
103.198
 11
173.017
 21
103.379
  0
LINE
  8
0
 10
173.017
 20
103.379
 11
172.671
 21
103.552
  0
LINE
  8
0
 10
172.671
 20
103.552
 11
172.32
 21
103.718
  0
LINE
  8
0
 10
172.32
 20
103.718
 11
171.963
 21
103.877
  0
LINE
  8
0
 10
171.963
 20
103.877
 11
171.6
 21
104.028
  0
LINE
  8
0
 10
171.6
 20
104.028
 11
171.232
 21
104.171
  0
LINE
  8
0
 10
171.232
 20
104.171
 11
170.86
 21
104.307
  0
LINE
  8
0
 10
170.86
 20
104.307
 11
170.487
 21
104.434
  0
LINE
  8
0
 10
170.487
 20
104.434
 11
170.112
 21
104.553
  0
LINE
  8
0
 10
170.112
 20
104.553
 11
169.735
 21
104.664
  0
LINE
  8
0
 10
169.735
 20
104.664
 11
169.357
 21
104.767
  0
LINE
  8
0
 10
169.357
 20
104.767
 11
168.977
 21
104.861
  0
LINE
  8
0
 10
168.977
 20
104.861
 11
168.595
 21
104.947
  0
LINE
  8
0
 10
168.595
 20
104.947
 11
168.212
 21
105.025
  0
LINE
  8
0
 10
168.212
 20
105.025
 11
167.827
 21
105.095
  0
LINE
  8
0
 10
167.827
 20
105.095
 11
167.44
 21
105.157
  0
LINE
  8
0
 10
167.44
 20
105.157
 11
167.052
 21
105.21
  0
LINE
  8
0
 10
167.052
 20
105.21
 11
166.662
 21
105.255
  0
LINE
  8
0
 10
166.662
 20
105.255
 11
166.271
 21
105.292
  0
LINE
  8
0
 10
166.271
 20
105.292
 11
165.877
 21
105.321
  0
LINE
  8
0
 10
165.877
 20
105.321
 11
165.483
 21
105.342
  0
LINE
  8
0
 10
165.483
 20
105.342
 11
165.086
 21
105.354
  0
LINE
  8
0
 10
165.086
 20
105.354
 11
164.688
 21
105.358
  0
LINE
  8
0
 10
164.688
 20
105.358
 11
164.11
 21
105.35
  0
LINE
  8
0
 10
164.11
 20
105.35
 11
163.54
 21
105.328
  0
LINE
  8
0
 10
163.54
 20
105.328
 11
162.978
 21
105.29
  0
LINE
  8
0
 10
162.978
 20
105.29
 11
162.424
 21
105.238
  0
LINE
  8
0
 10
162.424
 20
105.238
 11
161.879
 21
105.17
  0
LINE
  8
0
 10
161.879
 20
105.17
 11
161.342
 21
105.088
  0
LINE
  8
0
 10
161.342
 20
105.088
 11
160.813
 21
104.99
  0
LINE
  8
0
 10
160.813
 20
104.99
 11
160.292
 21
104.877
  0
LINE
  8
0
 10
160.292
 20
104.877
 11
159.779
 21
104.75
  0
LINE
  8
0
 10
159.779
 20
104.75
 11
159.275
 21
104.607
  0
LINE
  8
0
 10
159.275
 20
104.607
 11
158.779
 21
104.449
  0
LINE
  8
0
 10
158.779
 20
104.449
 11
158.291
 21
104.277
  0
LINE
  8
0
 10
158.291
 20
104.277
 11
157.811
 21
104.089
  0
LINE
  8
0
 10
157.811
 20
104.089
 11
157.339
 21
103.886
  0
LINE
  8
0
 10
157.339
 20
103.886
 11
156.876
 21
103.669
  0
LINE
  8
0
 10
156.876
 20
103.669
 11
156.421
 21
103.436
  0
LINE
  8
0
 10
156.421
 20
103.436
 11
155.974
 21
103.188
  0
LINE
  8
0
 10
155.974
 20
103.188
 11
155.537
 21
102.926
  0
LINE
  8
0
 10
155.537
 20
102.926
 11
155.112
 21
102.652
  0
LINE
  8
0
 10
155.112
 20
102.652
 11
154.699
 21
102.365
  0
LINE
  8
0
 10
154.699
 20
102.365
 11
154.297
 21
102.065
  0
LINE
  8
0
 10
154.297
 20
102.065
 11
153.907
 21
101.753
  0
LINE
  8
0
 10
153.907
 20
101.753
 11
153.529
 21
101.428
  0
LINE
  8
0
 10
153.529
 20
101.428
 11
153.162
 21
101.09
  0
LINE
  8
0
 10
153.162
 20
101.09
 11
152.807
 21
100.74
  0
LINE
  8
0
 10
152.807
 20
100.74
 11
152.464
 21
100.377
  0
LINE
  8
0
 10
152.464
 20
100.377
 11
152.133
 21
100.001
  0
LINE
  8
0
 10
152.133
 20
100.001
 11
151.813
 21
99.6131
  0
LINE
  8
0
 10
151.813
 20
99.6131
 11
151.506
 21
99.2121
  0
LINE
  8
0
 10
151.506
 20
99.2121
 11
151.209
 21
98.7984
  0
LINE
  8
0
 10
151.209
 20
98.7984
 11
150.925
 21
98.3721
  0
LINE
  8
0
 10
150.925
 20
98.3721
 11
150.652
 21
97.9331
  0
LINE
  8
0
 10
150.652
 20
97.9331
 11
150.391
 21
97.4814
  0
LINE
  8
0
 10
150.391
 20
97.4814
 11
150.142
 21
97.017
  0
LINE
  8
0
 10
150.142
 20
97.017
 11
149.906
 21
96.5421
  0
LINE
  8
0
 10
149.906
 20
96.5421
 11
149.684
 21
96.0587
  0
LINE
  8
0
 10
149.684
 20
96.0587
 11
149.477
 21
95.5668
  0
LINE
  8
0
 10
149.477
 20
95.5668
 11
149.283
 21
95.0666
  0
LINE
  8
0
 10
149.283
 20
95.0666
 11
149.104
 21
94.5578
  0
LINE
  8
0
 10
149.104
 20
94.5578
 11
148.94
 21
94.0407
  0
LINE
  8
0
 10
148.94
 20
94.0407
 11
148.79
 21
93.515
  0
LINE
  8
0
 10
148.79
 20
93.515
 11
148.654
 21
92.981
  0
LINE
  8
0
 10
148.654
 20
92.981
 11
148.532
 21
92.4384
  0
LINE
  8
0
 10
148.532
 20
92.4384
 11
148.425
 21
91.8874
  0
LINE
  8
0
 10
148.425
 20
91.8874
 11
148.332
 21
91.328
  0
LINE
  8
0
 10
148.332
 20
91.328
 11
148.253
 21
90.7601
  0
LINE
  8
0
 10
148.253
 20
90.7601
 11
148.188
 21
90.1838
  0
LINE
  8
0
 10
148.188
 20
90.1838
 11
148.138
 21
89.599
  0
LINE
  8
0
 10
148.138
 20
89.599
 11
148.103
 21
89.0058
  0
LINE
  8
0
 10
148.103
 20
89.0058
 11
148.081
 21
88.4041
  0
LINE
  8
0
 10
148.081
 20
88.4041
 11
148.074
 21
87.794
  0
LINE
  8
0
 10
148.074
 20
87.794
 11
148.074
 21
58.703
  0
LINE
  8
0
 10
148.074
 20
58.703
 11
148.081
 21
58.1643
  0
LINE
  8
0
 10
148.081
 20
58.1643
 11
148.103
 21
57.6331
  0
LINE
  8
0
 10
148.103
 20
57.6331
 11
148.139
 21
57.1093
  0
LINE
  8
0
 10
148.139
 20
57.1093
 11
148.19
 21
56.5931
  0
LINE
  8
0
 10
148.19
 20
56.5931
 11
148.256
 21
56.0844
  0
LINE
  8
0
 10
148.256
 20
56.0844
 11
148.336
 21
55.5832
  0
LINE
  8
0
 10
148.336
 20
55.5832
 11
148.43
 21
55.0895
  0
LINE
  8
0
 10
148.43
 20
55.0895
 11
148.539
 21
54.6033
  0
LINE
  8
0
 10
148.539
 20
54.6033
 11
148.663
 21
54.1246
  0
LINE
  8
0
 10
148.663
 20
54.1246
 11
148.801
 21
53.6534
  0
LINE
  8
0
 10
148.801
 20
53.6534
 11
148.954
 21
53.1897
  0
LINE
  8
0
 10
148.954
 20
53.1897
 11
149.121
 21
52.7335
  0
LINE
  8
0
 10
149.121
 20
52.7335
 11
149.303
 21
52.2848
  0
LINE
  8
0
 10
149.303
 20
52.2848
 11
149.5
 21
51.8436
  0
LINE
  8
0
 10
149.5
 20
51.8436
 11
149.71
 21
51.4099
  0
LINE
  8
0
 10
149.71
 20
51.4099
 11
149.936
 21
50.9837
  0
LINE
  8
0
 10
149.936
 20
50.9837
 11
150.176
 21
50.565
  0
LINE
  8
0
 10
150.176
 20
50.565
 11
150.43
 21
50.1558
  0
LINE
  8
0
 10
150.43
 20
50.1558
 11
150.695
 21
49.7579
  0
LINE
  8
0
 10
150.695
 20
49.7579
 11
150.973
 21
49.3712
  0
LINE
  8
0
 10
150.973
 20
49.3712
 11
151.263
 21
48.9958
  0
LINE
  8
0
 10
151.263
 20
48.9958
 11
151.565
 21
48.6316
  0
LINE
  8
0
 10
151.565
 20
48.6316
 11
151.88
 21
48.2787
  0
LINE
  8
0
 10
151.88
 20
48.2787
 11
152.207
 21
47.9371
  0
LINE
  8
0
 10
152.207
 20
47.9371
 11
152.545
 21
47.6067
  0
LINE
  8
0
 10
152.545
 20
47.6067
 11
152.897
 21
47.2876
  0
LINE
  8
0
 10
152.897
 20
47.2876
 11
153.26
 21
46.9797
  0
LINE
  8
0
 10
153.26
 20
46.9797
 11
153.635
 21
46.6831
  0
LINE
  8
0
 10
153.635
 20
46.6831
 11
154.023
 21
46.3978
  0
LINE
  8
0
 10
154.023
 20
46.3978
 11
154.423
 21
46.1237
  0
LINE
  8
0
 10
154.423
 20
46.1237
 11
154.835
 21
45.8609
  0
LINE
  8
0
 10
154.835
 20
45.8609
 11
155.259
 21
45.6093
  0
LINE
  8
0
 10
155.259
 20
45.6093
 11
155.695
 21
45.369
  0
LINE
  8
0
 10
155.695
 20
45.369
 11
156.144
 21
45.14
  0
LINE
  8
0
 10
156.144
 20
45.14
 11
156.603
 21
44.9233
  0
LINE
  8
0
 10
156.603
 20
44.9233
 11
157.07
 21
44.7197
  0
LINE
  8
0
 10
157.07
 20
44.7197
 11
157.546
 21
44.5292
  0
LINE
  8
0
 10
157.546
 20
44.5292
 11
158.03
 21
44.3519
  0
LINE
  8
0
 10
158.03
 20
44.3519
 11
158.523
 21
44.1877
  0
LINE
  8
0
 10
158.523
 20
44.1877
 11
159.024
 21
44.0367
  0
LINE
  8
0
 10
159.024
 20
44.0367
 11
159.534
 21
43.8987
  0
LINE
  8
0
 10
159.534
 20
43.8987
 11
160.052
 21
43.774
  0
LINE
  8
0
 10
160.052
 20
43.774
 11
160.579
 21
43.6623
  0
LINE
  8
0
 10
160.579
 20
43.6623
 11
161.114
 21
43.5638
  0
LINE
  8
0
 10
161.114
 20
43.5638
 11
161.657
 21
43.4784
  0
LINE
  8
0
 10
161.657
 20
43.4784
 11
162.209
 21
43.4062
  0
LINE
  8
0
 10
162.209
 20
43.4062
 11
162.769
 21
43.3471
  0
LINE
  8
0
 10
162.769
 20
43.3471
 11
163.338
 21
43.3011
  0
LINE
  8
0
 10
163.338
 20
43.3011
 11
163.915
 21
43.2683
  0
LINE
  8
0
 10
163.915
 20
43.2683
 11
164.501
 21
43.2486
  0
LINE
  8
0
 10
164.501
 20
43.2486
 11
165.095
 21
43.242
  0
LINE
  8
0
 10
165.095
 20
43.242
 11
165.681
 21
43.2491
  0
LINE
  8
0
 10
165.681
 20
43.2491
 11
166.258
 21
43.2706
  0
LINE
  8
0
 10
166.258
 20
43.2706
 11
166.827
 21
43.3064
  0
LINE
  8
0
 10
166.827
 20
43.3064
 11
167.387
 21
43.3565
  0
LINE
  8
0
 10
167.387
 20
43.3565
 11
167.938
 21
43.4209
  0
LINE
  8
0
 10
167.938
 20
43.4209
 11
168.481
 21
43.4996
  0
LINE
  8
0
 10
168.481
 20
43.4996
 11
169.015
 21
43.5926
  0
LINE
  8
0
 10
169.015
 20
43.5926
 11
169.54
 21
43.7
  0
LINE
  8
0
 10
169.54
 20
43.7
 11
170.057
 21
43.8216
  0
LINE
  8
0
 10
170.057
 20
43.8216
 11
170.565
 21
43.9576
  0
LINE
  8
0
 10
170.565
 20
43.9576
 11
171.064
 21
44.1078
  0
LINE
  8
0
 10
171.064
 20
44.1078
 11
171.554
 21
44.2724
  0
LINE
  8
0
 10
171.554
 20
44.2724
 11
172.036
 21
44.4513
  0
LINE
  8
0
 10
172.036
 20
44.4513
 11
172.509
 21
44.6445
  0
LINE
  8
0
 10
172.509
 20
44.6445
 11
172.974
 21
44.852
  0
LINE
  8
0
 10
172.974
 20
44.852
 11
173.43
 21
45.0739
  0
LINE
  8
0
 10
173.43
 20
45.0739
 11
173.877
 21
45.31
  0
LINE
  8
0
 10
173.877
 20
45.31
 11
174.314
 21
45.5597
  0
LINE
  8
0
 10
174.314
 20
45.5597
 11
174.739
 21
45.8224
  0
LINE
  8
0
 10
174.739
 20
45.8224
 11
175.152
 21
46.098
  0
LINE
  8
0
 10
175.152
 20
46.098
 11
175.553
 21
46.3864
  0
LINE
  8
0
 10
175.553
 20
46.3864
 11
175.941
 21
46.6878
  0
LINE
  8
0
 10
175.941
 20
46.6878
 11
176.318
 21
47.0021
  0
LINE
  8
0
 10
176.318
 20
47.0021
 11
176.683
 21
47.3293
  0
LINE
  8
0
 10
176.683
 20
47.3293
 11
177.036
 21
47.6694
  0
LINE
  8
0
 10
177.036
 20
47.6694
 11
177.378
 21
48.0224
  0
LINE
  8
0
 10
177.378
 20
48.0224
 11
177.707
 21
48.3883
  0
LINE
  8
0
 10
177.707
 20
48.3883
 11
178.024
 21
48.7671
  0
LINE
  8
0
 10
178.024
 20
48.7671
 11
178.329
 21
49.1588
  0
LINE
  8
0
 10
178.329
 20
49.1588
 11
178.622
 21
49.5634
  0
LINE
  8
0
 10
178.622
 20
49.5634
 11
178.903
 21
49.981
  0
LINE
  8
0
 10
178.903
 20
49.981
 11
179.172
 21
50.4114
  0
LINE
  8
0
 10
179.172
 20
50.4114
 11
179.43
 21
50.8547
  0
LINE
  8
0
 10
179.43
 20
50.8547
 11
179.675
 21
51.311
  0
LINE
  8
0
 10
179.675
 20
51.311
 11
179.907
 21
51.7786
  0
LINE
  8
0
 10
179.907
 20
51.7786
 11
180.125
 21
52.2561
  0
LINE
  8
0
 10
180.125
 20
52.2561
 11
180.33
 21
52.7435
  0
LINE
  8
0
 10
180.33
 20
52.7435
 11
180.52
 21
53.2407
  0
LINE
  8
0
 10
180.52
 20
53.2407
 11
180.696
 21
53.7478
  0
LINE
  8
0
 10
180.696
 20
53.7478
 11
180.857
 21
54.2647
  0
LINE
  8
0
 10
180.857
 20
54.2647
 11
181.005
 21
54.7915
  0
LINE
  8
0
 10
181.005
 20
54.7915
 11
181.139
 21
55.3282
  0
LINE
  8
0
 10
181.139
 20
55.3282
 11
181.259
 21
55.8747
  0
LINE
  8
0
 10
181.259
 20
55.8747
 11
181.364
 21
56.4311
  0
LINE
  8
0
 10
181.364
 20
56.4311
 11
181.456
 21
56.9974
  0
LINE
  8
0
 10
181.456
 20
56.9974
 11
181.533
 21
57.5735
  0
LINE
  8
0
 10
181.533
 20
57.5735
 11
181.596
 21
58.1595
  0
LINE
  8
0
 10
181.596
 20
58.1595
 11
181.646
 21
58.7553
  0
LINE
  8
0
 10
181.646
 20
58.7553
 11
181.681
 21
59.361
  0
LINE
  8
0
 10
181.681
 20
59.361
 11
181.702
 21
59.9766
  0
LINE
  8
0
 10
181.702
 20
59.9766
 11
181.709
 21
60.602
  0
LINE
  8
0
 10
181.709
 20
60.602
 11
181.709
 21
62.229
  0
LINE
  8
0
 10
181.709
 20
62.229
 11
166.791
 21
62.229
  0
LINE
  8
0
 10
166.791
 20
62.229
 11
166.791
 21
80.132
  0
LINE
  8
0
 10
166.791
 20
80.132
 11
200.968
 21
80.132
  0
LINE
  8
0
 10
200.968
 20
80.132
 11
200.968
 21
60.873
  0
LINE
  8
0
 10
200.968
 20
60.873
 11
200.953
 21
59.5896
  0
LINE
  8
0
 10
200.953
 20
59.5896
 11
200.907
 21
58.3242
  0
LINE
  8
0
 10
200.907
 20
58.3242
 11
200.83
 21
57.0769
  0
LINE
  8
0
 10
200.83
 20
57.0769
 11
200.722
 21
55.8477
  0
LINE
  8
0
 10
200.722
 20
55.8477
 11
200.584
 21
54.6365
  0
LINE
  8
0
 10
200.584
 20
54.6365
 11
200.415
 21
53.4434
  0
LINE
  8
0
 10
200.415
 20
53.4434
 11
200.215
 21
52.2684
  0
LINE
  8
0
 10
200.215
 20
52.2684
 11
199.984
 21
51.1114
  0
LINE
  8
0
 10
199.984
 20
51.1114
 11
199.723
 21
49.9726
  0
LINE
  8
0
 10
199.723
 20
49.9726
 11
199.431
 21
48.8517
  0
LINE
  8
0
 10
199.431
 20
48.8517
 11
199.108
 21
47.749
  0
LINE
  8
0
 10
199.108
 20
47.749
 11
198.755
 21
46.6643
  0
LINE
  8
0
 10
198.755
 20
46.6643
 11
198.37
 21
45.5977
  0
LINE
  8
0
 10
198.37
 20
45.5977
 11
197.955
 21
44.5492
  0
LINE
  8
0
 10
197.955
 20
44.5492
 11
197.51
 21
43.5187
  0
LINE
  8
0
 10
197.51
 20
43.5187
 11
197.033
 21
42.5063
  0
LINE
  8
0
 10
197.033
 20
42.5063
 11
196.526
 21
41.512
  0
LINE
  8
0
 10
196.526
 20
41.512
 11
195.991
 21
40.5399
  0
LINE
  8
0
 10
195.991
 20
40.5399
 11
195.43
 21
39.5942
  0
LINE
  8
0
 10
195.43
 20
39.5942
 11
194.843
 21
38.6747
  0
LINE
  8
0
 10
194.843
 20
38.6747
 11
194.231
 21
37.7814
  0
LINE
  8
0
 10
194.231
 20
37.7814
 11
193.594
 21
36.9145
  0
LINE
  8
0
 10
193.594
 20
36.9145
 11
192.931
 21
36.0738
  0
LINE
  8
0
 10
192.931
 20
36.0738
 11
192.242
 21
35.2594
  0
LINE
  8
0
 10
192.242
 20
35.2594
 11
191.528
 21
34.4712
  0
LINE
  8
0
 10
191.528
 20
34.4712
 11
190.788
 21
33.7093
  0
LINE
  8
0
 10
190.788
 20
33.7093
 11
190.022
 21
32.9737
  0
LINE
  8
0
 10
190.022
 20
32.9737
 11
189.231
 21
32.2644
  0
LINE
  8
0
 10
189.231
 20
32.2644
 11
188.414
 21
31.5813
  0
LINE
  8
0
 10
188.414
 20
31.5813
 11
187.572
 21
30.9245
  0
LINE
  8
0
 10
187.572
 20
30.9245
 11
186.704
 21
30.294
  0
LINE
  8
0
 10
186.704
 20
30.294
 11
185.811
 21
29.6897
  0
LINE
  8
0
 10
185.811
 20
29.6897
 11
184.892
 21
29.1117
  0
LINE
  8
0
 10
184.892
 20
29.1117
 11
183.947
 21
28.56
  0
LINE
  8
0
 10
183.947
 20
28.56
 11
182.981
 21
28.0374
  0
LINE
  8
0
 10
182.981
 20
28.0374
 11
181.997
 21
27.5464
  0
LINE
  8
0
 10
181.997
 20
27.5464
 11
180.995
 21
27.0871
  0
LINE
  8
0
 10
180.995
 20
27.0871
 11
179.975
 21
26.6595
  0
LINE
  8
0
 10
179.975
 20
26.6595
 11
178.938
 21
26.2636
  0
LINE
  8
0
 10
178.938
 20
26.2636
 11
177.882
 21
25.8993
  0
LINE
  8
0
 10
177.882
 20
25.8993
 11
176.809
 21
25.5667
  0
LINE
  8
0
 10
176.809
 20
25.5667
 11
175.718
 21
25.2658
  0
LINE
  8
0
 10
175.718
 20
25.2658
 11
174.609
 21
24.9966
  0
LINE
  8
0
 10
174.609
 20
24.9966
 11
173.482
 21
24.759
  0
LINE
  8
0
 10
173.482
 20
24.759
 11
172.337
 21
24.5531
  0
LINE
  8
0
 10
172.337
 20
24.5531
 11
171.175
 21
24.3789
  0
LINE
  8
0
 10
171.175
 20
24.3789
 11
169.995
 21
24.2364
  0
LINE
  8
0
 10
169.995
 20
24.2364
 11
168.796
 21
24.1255
  0
LINE
  8
0
 10
168.796
 20
24.1255
 11
167.58
 21
24.0464
  0
LINE
  8
0
 10
167.58
 20
24.0464
 11
166.347
 21
23.9988
  0
LINE
  8
0
 10
166.347
 20
23.9988
 11
165.095
 21
23.983
  0
LINE
  8
0
 10
165.095
 20
23.983
 11
163.835
 21
23.9979
  0
LINE
  8
0
 10
1858.81
 20
25
 11
1836.58
 21
64.67
  0
LINE
  8
0
 10
1836.58
 20
64.67
 11
1833.2
 21
64.67
  0
LINE
  8
0
 10
1833.2
 20
64.67
 11
1833.2
 21
82.573
  0
LINE
  8
0
 10
1833.2
 20
82.573
 11
1848.43
 21
82.573
  0
LINE
  8
0
 10
1848.43
 20
82.573
 11
1848.77
 21
82.5779
  0
LINE
  8
0
 10
1848.77
 20
82.5779
 11
1849.09
 21
82.5927
  0
LINE
  8
0
 10
1849.09
 20
82.5927
 11
1849.42
 21
82.6173
  0
LINE
  8
0
 10
1849.42
 20
82.6173
 11
1849.74
 21
82.6518
  0
LINE
  8
0
 10
1849.74
 20
82.6518
 11
1850.05
 21
82.6962
  0
LINE
  8
0
 10
1850.05
 20
82.6962
 11
1850.36
 21
82.7504
  0
LINE
  8
0
 10
1850.36
 20
82.7504
 11
1850.66
 21
82.8144
  0
LINE
  8
0
 10
1850.66
 20
82.8144
 11
1850.96
 21
82.8883
  0
LINE
  8
0
 10
1850.96
 20
82.8883
 11
1851.26
 21
82.9721
  0
LINE
  8
0
 10
1851.26
 20
82.9721
 11
1851.55
 21
83.0657
  0
LINE
  8
0
 10
1851.55
 20
83.0657
 11
1851.84
 21
83.1692
  0
LINE
  8
0
 10
1851.84
 20
83.1692
 11
1852.12
 21
83.2825
  0
LINE
  8
0
 10
1852.12
 20
83.2825
 11
1852.39
 21
83.4057
  0
LINE
  8
0
 10
1852.39
 20
83.4057
 11
1852.66
 21
83.5388
  0
LINE
  8
0
 10
1852.66
 20
83.5388
 11
1852.93
 21
83.6816
  0
LINE
  8
0
 10
1852.93
 20
83.6816
 11
1853.19
 21
83.8344
  0
LINE
  8
0
 10
1853.19
 20
83.8344
 11
1853.45
 21
83.997
  0
LINE
  8
0
 10
1853.45
 20
83.997
 11
1853.7
 21
84.1687
  0
LINE
  8
0
 10
1853.7
 20
84.1687
 11
1853.95
 21
84.3489
  0
LINE
  8
0
 10
1853.95
 20
84.3489
 11
1854.19
 21
84.5376
  0
LINE
  8
0
 10
1854.19
 20
84.5376
 11
1854.42
 21
84.7346
  0
LINE
  8
0
 10
1854.42
 20
84.7346
 11
1854.64
 21
84.9402
  0
LINE
  8
0
 10
1854.64
 20
84.9402
 11
1854.86
 21
85.1541
  0
LINE
  8
0
 10
1854.86
 20
85.1541
 11
1855.07
 21
85.3766
  0
LINE
  8
0
 10
1855.07
 20
85.3766
 11
1855.28
 21
85.6074
  0
LINE
  8
0
 10
1855.28
 20
85.6074
 11
1855.47
 21
85.8467
  0
LINE
  8
0
 10
1855.47
 20
85.8467
 11
1855.66
 21
86.0944
  0
LINE
  8
0
 10
1855.66
 20
86.0944
 11
1855.85
 21
86.3506
  0
LINE
  8
0
 10
1855.85
 20
86.3506
 11
1856.03
 21
86.6152
  0
LINE
  8
0
 10
1856.03
 20
86.6152
 11
1856.2
 21
86.8883
  0
LINE
  8
0
 10
1856.2
 20
86.8883
 11
1856.36
 21
87.1698
  0
LINE
  8
0
 10
1856.36
 20
87.1698
 11
1856.52
 21
87.4598
  0
LINE
  8
0
 10
1856.52
 20
87.4598
 11
1856.66
 21
87.7581
  0
LINE
  8
0
 10
1856.66
 20
87.7581
 11
1856.81
 21
88.065
  0
LINE
  8
0
 10
1856.81
 20
88.065
 11
1856.94
 21
88.379
  0
LINE
  8
0
 10
1856.94
 20
88.379
 11
1857.07
 21
88.6986
  0
LINE
  8
0
 10
1857.07
 20
88.6986
 11
1857.19
 21
89.0239
  0
LINE
  8
0
 10
1857.19
 20
89.0239
 11
1857.3
 21
89.3548
  0
LINE
  8
0
 10
1857.3
 20
89.3548
 11
1857.41
 21
89.6913
  0
LINE
  8
0
 10
1857.41
 20
89.6913
 11
1857.51
 21
90.0334
  0
LINE
  8
0
 10
1857.51
 20
90.0334
 11
1857.6
 21
90.3812
  0
LINE
  8
0
 10
1857.6
 20
90.3812
 11
1857.68
 21
90.7347
  0
LINE
  8
0
 10
1857.68
 20
90.7347
 11
1857.75
 21
91.0937
  0
LINE
  8
0
 10
1857.75
 20
91.0937
 11
1857.82
 21
91.4584
  0
LINE
  8
0
 10
1857.82
 20
91.4584
 11
1857.88
 21
91.8288
  0
LINE
  8
0
 10
1857.88
 20
91.8288
 11
1857.93
 21
92.2047
  0
LINE
  8
0
 10
1857.93
 20
92.2047
 11
1857.97
 21
92.5863
  0
LINE
  8
0
 10
1857.97
 20
92.5863
 11
1858
 21
92.9735
  0
LINE
  8
0
 10
1858
 20
92.9735
 11
1858.03
 21
93.3664
  0
LINE
  8
0
 10
1858.03
 20
93.3664
 11
1858.05
 21
93.7649
  0
LINE
  8
0
 10
1858.05
 20
93.7649
 11
1858.06
 21
94.169
  0
LINE
  8
0
 10
1858.06
 20
94.169
 11
1858.06
 21
94.573
  0
LINE
  8
0
 10
1858.06
 20
94.573
 11
1858.05
 21
94.9714
  0
LINE
  8
0
 10
1858.05
 20
94.9714
 11
1858.03
 21
95.3642
  0
LINE
  8
0
 10
1858.03
 20
95.3642
 11
1858
 21
95.7513
  0
LINE
  8
0
 10
1858
 20
95.7513
 11
1857.96
 21
96.1328
  0
LINE
  8
0
 10
1857.96
 20
96.1328
 11
1857.92
 21
96.5087
  0
LINE
  8
0
 10
1857.92
 20
96.5087
 11
1857.86
 21
96.8789
  0
LINE
  8
0
 10
1857.86
 20
96.8789
 11
1857.8
 21
97.2435
  0
LINE
  8
0
 10
1857.8
 20
97.2435
 11
1857.73
 21
97.6025
  0
LINE
  8
0
 10
1857.73
 20
97.6025
 11
1857.65
 21
97.9559
  0
LINE
  8
0
 10
1857.65
 20
97.9559
 11
1857.57
 21
98.3037
  0
LINE
  8
0
 10
1857.57
 20
98.3037
 11
1857.47
 21
98.6458
  0
LINE
  8
0
 10
1857.47
 20
98.6458
 11
1857.37
 21
98.9823
  0
LINE
  8
0
 10
1857.37
 20
98.9823
 11
1857.26
 21
99.3131
  0
LINE
  8
0
 10
1857.26
 20
99.3131
 11
1857.14
 21
99.6384
  0
LINE
  8
0
 10
1857.14
 20
99.6384
 11
1857.01
 21
99.958
  0
LINE
  8
0
 10
1857.01
 20
99.958
 11
1856.88
 21
100.272
  0
LINE
  8
0
 10
1856.88
 20
100.272
 11
1856.73
 21
100.579
  0
LINE
  8
0
 10
1856.73
 20
100.579
 11
1856.58
 21
100.877
  0
LINE
  8
0
 10
1856.58
 20
100.877
 11
1856.43
 21
101.167
  0
LINE
  8
0
 10
1856.43
 20
101.167
 11
1856.26
 21
101.449
  0
LINE
  8
0
 10
1856.26
 20
101.449
 11
1856.09
 21
101.722
  0
LINE
  8
0
 10
1856.09
 20
101.722
 11
1855.92
 21
101.987
  0
LINE
  8
0
 10
1855.92
 20
101.987
 11
1855.73
 21
102.243
  0
LINE
  8
0
 10
1855.73
 20
102.243
 11
1855.54
 21
102.491
  0
LINE
  8
0
 10
1855.54
 20
102.491
 11
1855.34
 21
102.73
  0
LINE
  8
0
 10
1855.34
 20
102.73
 11
1855.14
 21
102.961
  0
LINE
  8
0
 10
1855.14
 20
102.961
 11
1854.93
 21
103.184
  0
LINE
  8
0
 10
1854.93
 20
103.184
 11
1854.71
 21
103.398
  0
LINE
  8
0
 10
1854.71
 20
103.398
 11
1854.49
 21
103.603
  0
LINE
  8
0
 10
1854.49
 20
103.603
 11
1854.26
 21
103.8
  0
LINE
  8
0
 10
1854.26
 20
103.8
 11
1854.02
 21
103.989
  0
LINE
  8
0
 10
1854.02
 20
103.989
 11
1853.77
 21
104.169
  0
LINE
  8
0
 10
1853.77
 20
104.169
 11
1853.52
 21
104.341
  0
LINE
  8
0
 10
1853.52
 20
104.341
 11
1853.26
 21
104.504
  0
LINE
  8
0
 10
1853.26
 20
104.504
 11
1853
 21
104.656
  0
LINE
  8
0
 10
1853
 20
104.656
 11
1852.73
 21
104.799
  0
LINE
  8
0
 10
1852.73
 20
104.799
 11
1852.46
 21
104.932
  0
LINE
  8
0
 10
1852.46
 20
104.932
 11
1852.18
 21
105.055
  0
LINE
  8
0
 10
1852.18
 20
105.055
 11
1851.9
 21
105.169
  0
LINE
  8
0
 10
1851.9
 20
105.169
 11
1851.61
 21
105.272
  0
LINE
  8
0
 10
1851.61
 20
105.272
 11
1851.31
 21
105.366
  0
LINE
  8
0
 10
1851.31
 20
105.366
 11
1851.01
 21
105.45
  0
LINE
  8
0
 10
1851.01
 20
105.45
 11
1850.71
 21
105.524
  0
LINE
  8
0
 10
1850.71
 20
105.524
 11
1850.4
 21
105.588
  0
LINE
  8
0
 10
1850.4
 20
105.588
 11
1850.08
 21
105.642
  0
LINE
  8
0
 10
1850.08
 20
105.642
 11
1849.76
 21
105.686
  0
LINE
  8
0
 10
1849.76
 20
105.686
 11
1849.44
 21
105.721
  0
LINE
  8
0
 10
1849.44
 20
105.721
 11
1849.11
 21
105.745
  0
LINE
  8
0
 10
1849.11
 20
105.745
 11
1848.77
 21
105.76
  0
LINE
  8
0
 10
1848.77
 20
105.76
 11
1848.43
 21
105.765
  0
LINE
  8
0
 10
1848.43
 20
105.765
 11
1833.2
 21
105.765
  0
LINE
  8
0
 10
1833.2
 20
105.765
 11
1833.2
 21
123.667
  0
LINE
  8
0
 10
1833.2
 20
123.667
 11
1849.93
 21
123.667
  0
LINE
  8
0
 10
1849.93
 20
123.667
 11
1850.88
 21
123.654
  0
LINE
  8
0
 10
1850.88
 20
123.654
 11
1851.81
 21
123.616
  0
LINE
  8
0
 10
1851.81
 20
123.616
 11
1852.74
 21
123.553
  0
LINE
  8
0
 10
1852.74
 20
123.553
 11
1853.65
 21
123.464
  0
LINE
  8
0
 10
1853.65
 20
123.464
 11
1854.54
 21
123.35
  0
LINE
  8
0
 10
1854.54
 20
123.35
 11
1855.42
 21
123.211
  0
LINE
  8
0
 10
1855.42
 20
123.211
 11
1856.29
 21
123.046
  0
LINE
  8
0
 10
1856.29
 20
123.046
 11
1857.15
 21
122.856
  0
LINE
  8
0
 10
1857.15
 20
122.856
 11
1857.99
 21
122.641
  0
LINE
  8
0
 10
1857.99
 20
122.641
 11
1858.82
 21
122.4
  0
LINE
  8
0
 10
1858.82
 20
122.4
 11
1859.63
 21
122.134
  0
LINE
  8
0
 10
1859.63
 20
122.134
 11
1860.43
 21
121.842
  0
LINE
  8
0
 10
1860.43
 20
121.842
 11
1861.22
 21
121.526
  0
LINE
  8
0
 10
1861.22
 20
121.526
 11
1861.99
 21
121.183
  0
LINE
  8
0
 10
1861.99
 20
121.183
 11
1862.75
 21
120.816
  0
LINE
  8
0
 10
1862.75
 20
120.816
 11
1863.5
 21
120.423
  0
LINE
  8
0
 10
1863.5
 20
120.423
 11
1864.23
 21
120.005
  0
LINE
  8
0
 10
1864.23
 20
120.005
 11
1864.95
 21
119.564
  0
LINE
  8
0
 10
1864.95
 20
119.564
 11
1865.65
 21
119.102
  0
LINE
  8
0
 10
1865.65
 20
119.102
 11
1866.33
 21
118.619
  0
LINE
  8
0
 10
1866.33
 20
118.619
 11
1866.98
 21
118.115
  0
LINE
  8
0
 10
1866.98
 20
118.115
 11
1867.62
 21
117.59
  0
LINE
  8
0
 10
1867.62
 20
117.59
 11
1868.24
 21
117.044
  0
LINE
  8
0
 10
1868.24
 20
117.044
 11
1868.84
 21
116.478
  0
LINE
  8
0
 10
1868.84
 20
116.478
 11
1869.43
 21
115.89
  0
LINE
  8
0
 10
1869.43
 20
115.89
 11
1869.99
 21
115.282
  0
LINE
  8
0
 10
1869.99
 20
115.282
 11
1870.53
 21
114.652
  0
LINE
  8
0
 10
1870.53
 20
114.652
 11
1871.06
 21
114.002
  0
LINE
  8
0
 10
1871.06
 20
114.002
 11
1871.56
 21
113.331
  0
LINE
  8
0
 10
1871.56
 20
113.331
 11
1872.05
 21
112.639
  0
LINE
  8
0
 10
1872.05
 20
112.639
 11
1872.51
 21
111.927
  0
LINE
  8
0
 10
1872.51
 20
111.927
 11
1872.96
 21
111.193
  0
LINE
  8
0
 10
1872.96
 20
111.193
 11
1873.39
 21
110.438
  0
LINE
  8
0
 10
1873.39
 20
110.438
 11
1873.79
 21
109.663
  0
LINE
  8
0
 10
1873.79
 20
109.663
 11
1874.18
 21
108.87
  0
LINE
  8
0
 10
1874.18
 20
108.87
 11
1874.55
 21
108.062
  0
LINE
  8
0
 10
1874.55
 20
108.062
 11
1874.89
 21
107.239
  0
LINE
  8
0
 10
1874.89
 20
107.239
 11
1875.2
 21
106.402
  0
LINE
  8
0
 10
1875.2
 20
106.402
 11
1875.5
 21
105.549
  0
LINE
  8
0
 10
1875.5
 20
105.549
 11
1875.77
 21
104.682
  0
LINE
  8
0
 10
1875.77
 20
104.682
 11
1876.01
 21
103.8
  0
LINE
  8
0
 10
1876.01
 20
103.8
 11
1876.24
 21
102.904
  0
LINE
  8
0
 10
1876.24
 20
102.904
 11
1876.43
 21
101.992
  0
LINE
  8
0
 10
1876.43
 20
101.992
 11
1876.61
 21
101.066
  0
LINE
  8
0
 10
1876.61
 20
101.066
 11
1876.76
 21
100.125
  0
LINE
  8
0
 10
1876.76
 20
100.125
 11
1876.89
 21
99.1695
  0
LINE
  8
0
 10
1876.89
 20
99.1695
 11
1877
 21
98.199
  0
LINE
  8
0
 10
1877
 20
98.199
 11
1877.08
 21
97.2137
  0
LINE
  8
0
 10
1877.08
 20
97.2137
 11
1877.14
 21
96.2135
  0
LINE
  8
0
 10
1877.14
 20
96.2135
 11
1877.17
 21
95.1987
  0
LINE
  8
0
 10
1877.17
 20
95.1987
 11
1877.19
 21
94.169
  0
LINE
  8
0
 10
1877.19
 20
94.169
 11
1877.17
 21
93.1392
  0
LINE
  8
0
 10
1877.17
 20
93.1392
 11
1877.14
 21
92.1242
  0
LINE
  8
0
 10
1877.14
 20
92.1242
 11
1877.08
 21
91.124
  0
LINE
  8
0
 10
1877.08
 20
91.124
 11
1877
 21
90.1385
  0
LINE
  8
0
 10
1877
 20
90.1385
 11
1876.89
 21
89.1679
  0
LINE
  8
0
 10
1876.89
 20
89.1679
 11
1876.76
 21
88.212
  0
LINE
  8
0
 10
1876.76
 20
88.212
 11
1876.61
 21
87.2709
  0
LINE
  8
0
 10
1876.61
 20
87.2709
 11
1876.43
 21
86.3446
  0
LINE
  8
0
 10
1876.43
 20
86.3446
 11
1876.24
 21
85.4331
  0
LINE
  8
0
 10
1876.24
 20
85.4331
 11
1876.01
 21
84.5363
  0
LINE
  8
0
 10
1876.01
 20
84.5363
 11
1875.77
 21
83.6544
  0
LINE
  8
0
 10
1875.77
 20
83.6544
 11
1875.5
 21
82.7872
  0
LINE
  8
0
 10
1875.5
 20
82.7872
 11
1875.2
 21
81.9348
  0
LINE
  8
0
 10
1875.2
 20
81.9348
 11
1874.89
 21
81.0972
  0
LINE
  8
0
 10
1874.89
 20
81.0972
 11
1874.55
 21
80.2743
  0
LINE
  8
0
 10
1874.55
 20
80.2743
 11
1874.18
 21
79.4663
  0
LINE
  8
0
 10
1874.18
 20
79.4663
 11
1873.79
 21
78.673
  0
LINE
  8
0
 10
1873.79
 20
78.673
 11
1873.39
 21
77.8977
  0
LINE
  8
0
 10
1873.39
 20
77.8977
 11
1872.96
 21
77.1432
  0
LINE
  8
0
 10
1872.96
 20
77.1432
 11
1872.51
 21
76.4097
  0
LINE
  8
0
 10
1872.51
 20
76.4097
 11
1872.04
 21
75.697
  0
LINE
  8
0
 10
1872.04
 20
75.697
 11
1871.56
 21
75.0052
  0
LINE
  8
0
 10
1871.56
 20
75.0052
 11
1871.05
 21
74.3342
  0
LINE
  8
0
 10
1871.05
 20
74.3342
 11
1870.53
 21
73.6842
  0
LINE
  8
0
 10
1870.53
 20
73.6842
 11
1869.98
 21
73.055
  0
LINE
  8
0
 10
1869.98
 20
73.055
 11
1869.42
 21
72.4467
  0
LINE
  8
0
 10
1869.42
 20
72.4467
 11
1868.83
 21
71.8593
  0
LINE
  8
0
 10
1868.83
 20
71.8593
 11
1868.23
 21
71.2928
  0
LINE
  8
0
 10
1868.23
 20
71.2928
 11
1867.61
 21
70.7471
  0
LINE
  8
0
 10
1867.61
 20
70.7471
 11
1866.96
 21
70.2223
  0
LINE
  8
0
 10
1866.96
 20
70.2223
 11
1866.3
 21
69.7184
  0
LINE
  8
0
 10
1866.3
 20
69.7184
 11
1865.62
 21
69.2354
  0
LINE
  8
0
 10
1865.62
 20
69.2354
 11
1864.92
 21
68.7733
  0
LINE
  8
0
 10
1864.92
 20
68.7733
 11
1864.2
 21
68.332
  0
LINE
  8
0
 10
1864.2
 20
68.332
 11
1863.46
 21
67.9138
  0
LINE
  8
0
 10
1863.46
 20
67.9138
 11
1862.71
 21
67.521
  0
LINE
  8
0
 10
1862.71
 20
67.521
 11
1861.95
 21
67.1536
  0
LINE
  8
0
 10
1861.95
 20
67.1536
 11
1861.18
 21
66.8114
  0
LINE
  8
0
 10
1861.18
 20
66.8114
 11
1860.39
 21
66.4947
  0
LINE
  8
0
 10
1860.39
 20
66.4947
 11
1859.59
 21
66.2032
  0
LINE
  8
0
 10
1859.59
 20
66.2032
 11
1858.77
 21
65.9371
  0
LINE
  8
0
 10
1858.77
 20
65.9371
 11
1857.95
 21
65.6964
  0
LINE
  8
0
 10
1857.95
 20
65.6964
 11
1857.75
 21
65.6464
  0
LINE
  8
0
 10
1857.75
 20
65.6464
 11
1881.32
 21
25
  0
LINE
  8
0
 10
1881.32
 20
25
 11
1858.81
 21
25
  0
LINE
  8
0
 10
1106.93
 20
25
 11
1084.7
 21
64.67
  0
LINE
  8
0
 10
1084.7
 20
64.67
 11
1081.4
 21
64.67
  0
LINE
  8
0
 10
1081.4
 20
64.67
 11
1081.4
 21
82.573
  0
LINE
  8
0
 10
1081.4
 20
82.573
 11
1096.56
 21
82.573
  0
LINE
  8
0
 10
1096.56
 20
82.573
 11
1096.89
 21
82.5779
  0
LINE
  8
0
 10
1096.89
 20
82.5779
 11
1097.22
 21
82.5927
  0
LINE
  8
0
 10
1097.22
 20
82.5927
 11
1097.54
 21
82.6173
  0
LINE
  8
0
 10
1097.54
 20
82.6173
 11
1097.86
 21
82.6518
  0
LINE
  8
0
 10
1097.86
 20
82.6518
 11
1098.17
 21
82.6962
  0
LINE
  8
0
 10
1098.17
 20
82.6962
 11
1098.48
 21
82.7504
  0
LINE
  8
0
 10
1098.48
 20
82.7504
 11
1098.79
 21
82.8144
  0
LINE
  8
0
 10
1098.79
 20
82.8144
 11
1099.09
 21
82.8883
  0
LINE
  8
0
 10
1099.09
 20
82.8883
 11
1099.38
 21
82.9721
  0
LINE
  8
0
 10
1099.38
 20
82.9721
 11
1099.67
 21
83.0657
  0
LINE
  8
0
 10
1099.67
 20
83.0657
 11
1099.96
 21
83.1692
  0
LINE
  8
0
 10
1099.96
 20
83.1692
 11
1100.24
 21
83.2825
  0
LINE
  8
0
 10
1100.24
 20
83.2825
 11
1100.52
 21
83.4057
  0
LINE
  8
0
 10
1100.52
 20
83.4057
 11
1100.79
 21
83.5388
  0
LINE
  8
0
 10
1100.79
 20
83.5388
 11
1101.05
 21
83.6816
  0
LINE
  8
0
 10
1101.05
 20
83.6816
 11
1101.32
 21
83.8344
  0
LINE
  8
0
 10
1101.32
 20
83.8344
 11
1101.57
 21
83.997
  0
LINE
  8
0
 10
1101.57
 20
83.997
 11
1101.83
 21
84.1687
  0
LINE
  8
0
 10
1101.83
 20
84.1687
 11
1102.07
 21
84.3489
  0
LINE
  8
0
 10
1102.07
 20
84.3489
 11
1102.31
 21
84.5376
  0
LINE
  8
0
 10
1102.31
 20
84.5376
 11
1102.54
 21
84.7346
  0
LINE
  8
0
 10
1102.54
 20
84.7346
 11
1102.77
 21
84.9402
  0
LINE
  8
0
 10
1102.77
 20
84.9402
 11
1102.98
 21
85.1541
  0
LINE
  8
0
 10
1102.98
 20
85.1541
 11
1103.2
 21
85.3766
  0
LINE
  8
0
 10
1103.2
 20
85.3766
 11
1103.4
 21
85.6074
  0
LINE
  8
0
 10
1103.4
 20
85.6074
 11
1103.6
 21
85.8467
  0
LINE
  8
0
 10
1103.6
 20
85.8467
 11
1103.79
 21
86.0944
  0
LINE
  8
0
 10
1103.79
 20
86.0944
 11
1103.97
 21
86.3506
  0
LINE
  8
0
 10
1103.97
 20
86.3506
 11
1104.15
 21
86.6152
  0
LINE
  8
0
 10
1104.15
 20
86.6152
 11
1104.32
 21
86.8883
  0
LINE
  8
0
 10
1104.32
 20
86.8883
 11
1104.48
 21
87.1698
  0
LINE
  8
0
 10
1104.48
 20
87.1698
 11
1104.64
 21
87.4598
  0
LINE
  8
0
 10
1104.64
 20
87.4598
 11
1104.79
 21
87.7581
  0
LINE
  8
0
 10
1104.79
 20
87.7581
 11
1104.93
 21
88.065
  0
LINE
  8
0
 10
1104.93
 20
88.065
 11
1105.07
 21
88.379
  0
LINE
  8
0
 10
1105.07
 20
88.379
 11
1105.19
 21
88.6986
  0
LINE
  8
0
 10
1105.19
 20
88.6986
 11
1105.32
 21
89.0239
  0
LINE
  8
0
 10
1105.32
 20
89.0239
 11
1105.43
 21
89.3548
  0
LINE
  8
0
 10
1105.43
 20
89.3548
 11
1105.53
 21
89.6913
  0
LINE
  8
0
 10
1105.53
 20
89.6913
 11
1105.63
 21
90.0334
  0
LINE
  8
0
 10
1105.63
 20
90.0334
 11
1105.72
 21
90.3812
  0
LINE
  8
0
 10
1105.72
 20
90.3812
 11
1105.8
 21
90.7347
  0
LINE
  8
0
 10
1105.8
 20
90.7347
 11
1105.87
 21
91.0937
  0
LINE
  8
0
 10
1105.87
 20
91.0937
 11
1105.94
 21
91.4584
  0
LINE
  8
0
 10
1105.94
 20
91.4584
 11
1106
 21
91.8288
  0
LINE
  8
0
 10
1106
 20
91.8288
 11
1106.05
 21
92.2047
  0
LINE
  8
0
 10
1106.05
 20
92.2047
 11
1106.09
 21
92.5863
  0
LINE
  8
0
 10
1106.09
 20
92.5863
 11
1106.13
 21
92.9735
  0
LINE
  8
0
 10
1106.13
 20
92.9735
 11
1106.15
 21
93.3664
  0
LINE
  8
0
 10
1106.15
 20
93.3664
 11
1106.17
 21
93.7649
  0
LINE
  8
0
 10
1106.17
 20
93.7649
 11
1106.19
 21
94.169
  0
LINE
  8
0
 10
1106.19
 20
94.169
 11
1106.18
 21
94.573
  0
LINE
  8
0
 10
1106.18
 20
94.573
 11
1106.17
 21
94.9714
  0
LINE
  8
0
 10
1106.17
 20
94.9714
 11
1106.15
 21
95.3642
  0
LINE
  8
0
 10
1106.15
 20
95.3642
 11
1106.12
 21
95.7513
  0
LINE
  8
0
 10
1106.12
 20
95.7513
 11
1106.08
 21
96.1328
  0
LINE
  8
0
 10
1106.08
 20
96.1328
 11
1106.04
 21
96.5087
  0
LINE
  8
0
 10
1106.04
 20
96.5087
 11
1105.98
 21
96.8789
  0
LINE
  8
0
 10
1105.98
 20
96.8789
 11
1105.92
 21
97.2435
  0
LINE
  8
0
 10
1105.92
 20
97.2435
 11
1105.85
 21
97.6025
  0
LINE
  8
0
 10
1105.85
 20
97.6025
 11
1105.78
 21
97.9559
  0
LINE
  8
0
 10
1105.78
 20
97.9559
 11
1105.69
 21
98.3037
  0
LINE
  8
0
 10
1105.69
 20
98.3037
 11
1105.59
 21
98.6458
  0
LINE
  8
0
 10
1105.59
 20
98.6458
 11
1105.49
 21
98.9823
  0
LINE
  8
0
 10
1105.49
 20
98.9823
 11
1105.38
 21
99.3131
  0
LINE
  8
0
 10
1105.38
 20
99.3131
 11
1105.26
 21
99.6384
  0
LINE
  8
0
 10
1105.26
 20
99.6384
 11
1105.13
 21
99.958
  0
LINE
  8
0
 10
1105.13
 20
99.958
 11
1105
 21
100.272
  0
LINE
  8
0
 10
1105
 20
100.272
 11
1104.86
 21
100.579
  0
LINE
  8
0
 10
1104.86
 20
100.579
 11
1104.71
 21
100.877
  0
LINE
  8
0
 10
1104.71
 20
100.877
 11
1104.55
 21
101.167
  0
LINE
  8
0
 10
1104.55
 20
101.167
 11
1104.39
 21
101.449
  0
LINE
  8
0
 10
1104.39
 20
101.449
 11
1104.22
 21
101.722
  0
LINE
  8
0
 10
1104.22
 20
101.722
 11
1104.04
 21
101.987
  0
LINE
  8
0
 10
1104.04
 20
101.987
 11
1103.86
 21
102.243
  0
LINE
  8
0
 10
1103.86
 20
102.243
 11
1103.66
 21
102.491
  0
LINE
  8
0
 10
1103.66
 20
102.491
 11
1103.47
 21
102.73
  0
LINE
  8
0
 10
1103.47
 20
102.73
 11
1103.26
 21
102.961
  0
LINE
  8
0
 10
1103.26
 20
102.961
 11
1103.05
 21
103.184
  0
LINE
  8
0
 10
1103.05
 20
103.184
 11
1102.83
 21
103.398
  0
LINE
  8
0
 10
1102.83
 20
103.398
 11
1102.61
 21
103.603
  0
LINE
  8
0
 10
1102.61
 20
103.603
 11
1102.38
 21
103.8
  0
LINE
  8
0
 10
1102.38
 20
103.8
 11
1102.14
 21
103.989
  0
LINE
  8
0
 10
1102.14
 20
103.989
 11
1101.89
 21
104.169
  0
LINE
  8
0
 10
1101.89
 20
104.169
 11
1101.64
 21
104.341
  0
LINE
  8
0
 10
1101.64
 20
104.341
 11
1101.39
 21
104.504
  0
LINE
  8
0
 10
1101.39
 20
104.504
 11
1101.12
 21
104.656
  0
LINE
  8
0
 10
1101.12
 20
104.656
 11
1100.85
 21
104.799
  0
LINE
  8
0
 10
1100.85
 20
104.799
 11
1100.58
 21
104.932
  0
LINE
  8
0
 10
1100.58
 20
104.932
 11
1100.3
 21
105.055
  0
LINE
  8
0
 10
1100.3
 20
105.055
 11
1100.02
 21
105.169
  0
LINE
  8
0
 10
1100.02
 20
105.169
 11
1099.73
 21
105.272
  0
LINE
  8
0
 10
1099.73
 20
105.272
 11
1099.44
 21
105.366
  0
LINE
  8
0
 10
1099.44
 20
105.366
 11
1099.14
 21
105.45
  0
LINE
  8
0
 10
1099.14
 20
105.45
 11
1098.83
 21
105.524
  0
LINE
  8
0
 10
1098.83
 20
105.524
 11
1098.52
 21
105.588
  0
LINE
  8
0
 10
1098.52
 20
105.588
 11
1098.21
 21
105.642
  0
LINE
  8
0
 10
1098.21
 20
105.642
 11
1097.89
 21
105.686
  0
LINE
  8
0
 10
1097.89
 20
105.686
 11
1097.56
 21
105.721
  0
LINE
  8
0
 10
1097.56
 20
105.721
 11
1097.23
 21
105.745
  0
LINE
  8
0
 10
1097.23
 20
105.745
 11
1096.9
 21
105.76
  0
LINE
  8
0
 10
1096.9
 20
105.76
 11
1096.56
 21
105.765
  0
LINE
  8
0
 10
1096.56
 20
105.765
 11
1081.4
 21
105.765
  0
LINE
  8
0
 10
1081.4
 20
105.765
 11
1081.4
 21
123.667
  0
LINE
  8
0
 10
1081.4
 20
123.667
 11
1098.05
 21
123.667
  0
LINE
  8
0
 10
1098.05
 20
123.667
 11
1099
 21
123.654
  0
LINE
  8
0
 10
1099
 20
123.654
 11
1099.94
 21
123.616
  0
LINE
  8
0
 10
1099.94
 20
123.616
 11
1100.86
 21
123.553
  0
LINE
  8
0
 10
1100.86
 20
123.553
 11
1101.77
 21
123.464
  0
LINE
  8
0
 10
1101.77
 20
123.464
 11
1102.67
 21
123.35
  0
LINE
  8
0
 10
1102.67
 20
123.35
 11
1103.55
 21
123.211
  0
LINE
  8
0
 10
1103.55
 20
123.211
 11
1104.42
 21
123.046
  0
LINE
  8
0
 10
1104.42
 20
123.046
 11
1105.27
 21
122.856
  0
LINE
  8
0
 10
1105.27
 20
122.856
 11
1106.11
 21
122.641
  0
LINE
  8
0
 10
1106.11
 20
122.641
 11
1106.94
 21
122.4
  0
LINE
  8
0
 10
1106.94
 20
122.4
 11
1107.76
 21
122.134
  0
LINE
  8
0
 10
1107.76
 20
122.134
 11
1108.56
 21
121.842
  0
LINE
  8
0
 10
1108.56
 20
121.842
 11
1109.34
 21
121.526
  0
LINE
  8
0
 10
1109.34
 20
121.526
 11
1110.12
 21
121.183
  0
LINE
  8
0
 10
1110.12
 20
121.183
 11
1110.88
 21
120.816
  0
LINE
  8
0
 10
1110.88
 20
120.816
 11
1111.62
 21
120.423
  0
LINE
  8
0
 10
1111.62
 20
120.423
 11
1112.36
 21
120.005
  0
LINE
  8
0
 10
1112.36
 20
120.005
 11
1113.07
 21
119.564
  0
LINE
  8
0
 10
1113.07
 20
119.564
 11
1113.77
 21
119.102
  0
LINE
  8
0
 10
1113.77
 20
119.102
 11
1114.45
 21
118.619
  0
LINE
  8
0
 10
1114.45
 20
118.619
 11
1115.11
 21
118.115
  0
LINE
  8
0
 10
1115.11
 20
118.115
 11
1115.75
 21
117.59
  0
LINE
  8
0
 10
1115.75
 20
117.59
 11
1116.37
 21
117.044
  0
LINE
  8
0
 10
1116.37
 20
117.044
 11
1116.97
 21
116.478
  0
LINE
  8
0
 10
1116.97
 20
116.478
 11
1117.55
 21
115.89
  0
LINE
  8
0
 10
1117.55
 20
115.89
 11
1118.11
 21
115.282
  0
LINE
  8
0
 10
1118.11
 20
115.282
 11
1118.65
 21
114.652
  0
LINE
  8
0
 10
1118.65
 20
114.652
 11
1119.18
 21
114.002
  0
LINE
  8
0
 10
1119.18
 20
114.002
 11
1119.68
 21
113.331
  0
LINE
  8
0
 10
1119.68
 20
113.331
 11
1120.17
 21
112.639
  0
LINE
  8
0
 10
1120.17
 20
112.639
 11
1120.63
 21
111.927
  0
LINE
  8
0
 10
1120.63
 20
111.927
 11
1121.08
 21
111.193
  0
LINE
  8
0
 10
1121.08
 20
111.193
 11
1121.51
 21
110.438
  0
LINE
  8
0
 10
1121.51
 20
110.438
 11
1121.92
 21
109.663
  0
LINE
  8
0
 10
1121.92
 20
109.663
 11
1122.31
 21
108.87
  0
LINE
  8
0
 10
1122.31
 20
108.87
 11
1122.67
 21
108.062
  0
LINE
  8
0
 10
1122.67
 20
108.062
 11
1123.01
 21
107.239
  0
LINE
  8
0
 10
1123.01
 20
107.239
 11
1123.33
 21
106.402
  0
LINE
  8
0
 10
1123.33
 20
106.402
 11
1123.62
 21
105.549
  0
LINE
  8
0
 10
1123.62
 20
105.549
 11
1123.89
 21
104.682
  0
LINE
  8
0
 10
1123.89
 20
104.682
 11
1124.14
 21
103.8
  0
LINE
  8
0
 10
1124.14
 20
103.8
 11
1124.36
 21
102.904
  0
LINE
  8
0
 10
1124.36
 20
102.904
 11
1124.56
 21
101.992
  0
LINE
  8
0
 10
1124.56
 20
101.992
 11
1124.73
 21
101.066
  0
LINE
  8
0
 10
1124.73
 20
101.066
 11
1124.89
 21
100.125
  0
LINE
  8
0
 10
1124.89
 20
100.125
 11
1125.02
 21
99.1695
  0
LINE
  8
0
 10
1125.02
 20
99.1695
 11
1125.12
 21
98.199
  0
LINE
  8
0
 10
1125.12
 20
98.199
 11
1125.2
 21
97.2137
  0
LINE
  8
0
 10
1125.2
 20
97.2137
 11
1125.26
 21
96.2135
  0
LINE
  8
0
 10
1125.26
 20
96.2135
 11
1125.3
 21
95.1987
  0
LINE
  8
0
 10
1125.3
 20
95.1987
 11
1125.31
 21
94.169
  0
LINE
  8
0
 10
1125.31
 20
94.169
 11
1125.3
 21
93.1392
  0
LINE
  8
0
 10
1125.3
 20
93.1392
 11
1125.26
 21
92.1242
  0
LINE
  8
0
 10
1125.26
 20
92.1242
 11
1125.2
 21
91.124
  0
LINE
  8
0
 10
1125.2
 20
91.124
 11
1125.12
 21
90.1385
  0
LINE
  8
0
 10
1125.12
 20
90.1385
 11
1125.02
 21
89.1679
  0
LINE
  8
0
 10
1125.02
 20
89.1679
 11
1124.89
 21
88.212
  0
LINE
  8
0
 10
1124.89
 20
88.212
 11
1124.73
 21
87.2709
  0
LINE
  8
0
 10
1124.73
 20
87.2709
 11
1124.56
 21
86.3446
  0
LINE
  8
0
 10
1124.56
 20
86.3446
 11
1124.36
 21
85.4331
  0
LINE
  8
0
 10
1124.36
 20
85.4331
 11
1124.14
 21
84.5363
  0
LINE
  8
0
 10
1124.14
 20
84.5363
 11
1123.89
 21
83.6544
  0
LINE
  8
0
 10
1123.89
 20
83.6544
 11
1123.62
 21
82.7872
  0
LINE
  8
0
 10
1123.62
 20
82.7872
 11
1123.33
 21
81.9348
  0
LINE
  8
0
 10
1123.33
 20
81.9348
 11
1123.01
 21
81.0972
  0
LINE
  8
0
 10
1123.01
 20
81.0972
 11
1122.67
 21
80.2743
  0
LINE
  8
0
 10
1122.67
 20
80.2743
 11
1122.31
 21
79.4663
  0
LINE
  8
0
 10
1122.31
 20
79.4663
 11
1121.92
 21
78.673
  0
LINE
  8
0
 10
1121.92
 20
78.673
 11
1121.51
 21
77.8977
  0
LINE
  8
0
 10
1121.51
 20
77.8977
 11
1121.08
 21
77.1432
  0
LINE
  8
0
 10
1121.08
 20
77.1432
 11
1120.63
 21
76.4097
  0
LINE
  8
0
 10
1120.63
 20
76.4097
 11
1120.17
 21
75.697
  0
LINE
  8
0
 10
1120.17
 20
75.697
 11
1119.68
 21
75.0052
  0
LINE
  8
0
 10
1119.68
 20
75.0052
 11
1119.17
 21
74.3342
  0
LINE
  8
0
 10
1119.17
 20
74.3342
 11
1118.65
 21
73.6842
  0
LINE
  8
0
 10
1118.65
 20
73.6842
 11
1118.1
 21
73.055
  0
LINE
  8
0
 10
1118.1
 20
73.055
 11
1117.54
 21
72.4467
  0
LINE
  8
0
 10
1117.54
 20
72.4467
 11
1116.96
 21
71.8593
  0
LINE
  8
0
 10
1116.96
 20
71.8593
 11
1116.35
 21
71.2928
  0
LINE
  8
0
 10
1116.35
 20
71.2928
 11
1115.73
 21
70.7471
  0
LINE
  8
0
 10
1115.73
 20
70.7471
 11
1115.09
 21
70.2223
  0
LINE
  8
0
 10
1115.09
 20
70.2223
 11
1114.43
 21
69.7184
  0
LINE
  8
0
 10
1114.43
 20
69.7184
 11
1113.74
 21
69.2354
  0
LINE
  8
0
 10
1113.74
 20
69.2354
 11
1113.04
 21
68.7733
  0
LINE
  8
0
 10
1113.04
 20
68.7733
 11
1112.32
 21
68.332
  0
LINE
  8
0
 10
1112.32
 20
68.332
 11
1111.59
 21
67.9138
  0
LINE
  8
0
 10
1111.59
 20
67.9138
 11
1110.84
 21
67.521
  0
LINE
  8
0
 10
1110.84
 20
67.521
 11
1110.07
 21
67.1536
  0
LINE
  8
0
 10
1110.07
 20
67.1536
 11
1109.3
 21
66.8114
  0
LINE
  8
0
 10
1109.3
 20
66.8114
 11
1108.51
 21
66.4947
  0
LINE
  8
0
 10
1108.51
 20
66.4947
 11
1107.71
 21
66.2032
  0
LINE
  8
0
 10
1107.71
 20
66.2032
 11
1106.9
 21
65.9371
  0
LINE
  8
0
 10
1106.9
 20
65.9371
 11
1106.07
 21
65.6964
  0
LINE
  8
0
 10
1106.07
 20
65.6964
 11
1105.88
 21
65.6464
  0
LINE
  8
0
 10
1105.88
 20
65.6464
 11
1129.45
 21
25
  0
LINE
  8
0
 10
1129.45
 20
25
 11
1106.93
 21
25
  0
LINE
  8
0
 10
1806.73
 20
25
 11
1806.73
 21
123.667
  0
LINE
  8
0
 10
1806.73
 20
123.667
 11
1825.2
 21
123.667
  0
LINE
  8
0
 10
1825.2
 20
123.667
 11
1825.2
 21
25
  0
LINE
  8
0
 10
1825.2
 20
25
 11
1806.73
 21
25
  0
LINE
  8
0
 10
1054.85
 20
25
 11
1054.85
 21
123.667
  0
LINE
  8
0
 10
1054.85
 20
123.667
 11
1073.4
 21
123.667
  0
LINE
  8
0
 10
1073.4
 20
123.667
 11
1073.4
 21
25
  0
LINE
  8
0
 10
1073.4
 20
25
 11
1054.85
 21
25
  0
LINE
  8
0
 10
1527.96
 20
25
 11
1527.96
 21
105.697
  0
LINE
  8
0
 10
1527.96
 20
105.697
 11
1501.11
 21
105.697
  0
LINE
  8
0
 10
1501.11
 20
105.697
 11
1501.11
 21
123.599
  0
LINE
  8
0
 10
1501.11
 20
123.599
 11
1573.39
 21
123.599
  0
LINE
  8
0
 10
1573.39
 20
123.599
 11
1573.39
 21
105.697
  0
LINE
  8
0
 10
1573.39
 20
105.697
 11
1546.54
 21
105.697
  0
LINE
  8
0
 10
1546.54
 20
105.697
 11
1546.54
 21
25
  0
LINE
  8
0
 10
1546.54
 20
25
 11
1527.96
 21
25
  0
LINE
  8
0
 10
602.388
 20
25
 11
602.388
 21
123.599
  0
LINE
  8
0
 10
602.388
 20
123.599
 11
620.8
 21
123.599
  0
LINE
  8
0
 10
620.8
 20
123.599
 11
620.8
 21
25
  0
LINE
  8
0
 10
620.8
 20
25
 11
602.388
 21
25
  0
LINE
  8
0
 10
628.8
 20
25
 11
628.8
 21
42.903
  0
LINE
  8
0
 10
628.8
 20
42.903
 11
641.991
 21
42.903
  0
LINE
  8
0
 10
641.991
 20
42.903
 11
642.731
 21
42.9137
  0
LINE
  8
0
 10
642.731
 20
42.9137
 11
643.451
 21
42.9457
  0
LINE
  8
0
 10
643.451
 20
42.9457
 11
644.151
 21
42.9991
  0
LINE
  8
0
 10
644.151
 20
42.9991
 11
644.831
 21
43.0738
  0
LINE
  8
0
 10
644.831
 20
43.0738
 11
645.491
 21
43.1699
  0
LINE
  8
0
 10
645.491
 20
43.1699
 11
646.131
 21
43.2873
  0
LINE
  8
0
 10
646.131
 20
43.2873
 11
646.752
 21
43.4261
  0
LINE
  8
0
 10
646.752
 20
43.4261
 11
647.352
 21
43.5862
  0
LINE
  8
0
 10
647.352
 20
43.5862
 11
647.932
 21
43.7676
  0
LINE
  8
0
 10
647.932
 20
43.7676
 11
648.493
 21
43.9705
  0
LINE
  8
0
 10
648.493
 20
43.9705
 11
649.033
 21
44.1946
  0
LINE
  8
0
 10
649.033
 20
44.1946
 11
649.554
 21
44.4402
  0
LINE
  8
0
 10
649.554
 20
44.4402
 11
650.054
 21
44.707
  0
LINE
  8
0
 10
650.054
 20
44.707
 11
650.535
 21
44.9952
  0
LINE
  8
0
 10
650.535
 20
44.9952
 11
650.996
 21
45.3048
  0
LINE
  8
0
 10
650.996
 20
45.3048
 11
651.436
 21
45.6357
  0
LINE
  8
0
 10
651.436
 20
45.6357
 11
651.857
 21
45.988
  0
LINE
  8
0
 10
651.857
 20
45.988
 11
652.256
 21
46.3595
  0
LINE
  8
0
 10
652.256
 20
46.3595
 11
652.631
 21
46.7481
  0
LINE
  8
0
 10
652.631
 20
46.7481
 11
652.981
 21
47.1539
  0
LINE
  8
0
 10
652.981
 20
47.1539
 11
653.307
 21
47.5768
  0
LINE
  8
0
 10
653.307
 20
47.5768
 11
653.61
 21
48.0169
  0
LINE
  8
0
 10
653.61
 20
48.0169
 11
653.888
 21
48.4741
  0
LINE
  8
0
 10
653.888
 20
48.4741
 11
654.141
 21
48.9484
  0
LINE
  8
0
 10
654.141
 20
48.9484
 11
654.371
 21
49.4398
  0
LINE
  8
0
 10
654.371
 20
49.4398
 11
654.577
 21
49.9484
  0
LINE
  8
0
 10
654.577
 20
49.9484
 11
654.758
 21
50.4742
  0
LINE
  8
0
 10
654.758
 20
50.4742
 11
654.915
 21
51.017
  0
LINE
  8
0
 10
654.915
 20
51.017
 11
655.048
 21
51.577
  0
LINE
  8
0
 10
655.048
 20
51.577
 11
655.157
 21
52.1541
  0
LINE
  8
0
 10
655.157
 20
52.1541
 11
655.241
 21
52.7484
  0
LINE
  8
0
 10
655.241
 20
52.7484
 11
655.302
 21
53.3598
  0
LINE
  8
0
 10
655.302
 20
53.3598
 11
655.338
 21
53.9883
  0
LINE
  8
0
 10
655.338
 20
53.9883
 11
655.35
 21
54.634
  0
LINE
  8
0
 10
655.35
 20
54.634
 11
655.35
 21
54.838
  0
LINE
  8
0
 10
655.35
 20
54.838
 11
655.345
 21
55.2729
  0
LINE
  8
0
 10
655.345
 20
55.2729
 11
655.328
 21
55.7004
  0
LINE
  8
0
 10
655.328
 20
55.7004
 11
655.302
 21
56.1203
  0
LINE
  8
0
 10
655.302
 20
56.1203
 11
655.264
 21
56.5328
  0
LINE
  8
0
 10
655.264
 20
56.5328
 11
655.215
 21
56.9377
  0
LINE
  8
0
 10
655.215
 20
56.9377
 11
655.156
 21
57.3352
  0
LINE
  8
0
 10
655.156
 20
57.3352
 11
655.086
 21
57.7251
  0
LINE
  8
0
 10
655.086
 20
57.7251
 11
655.005
 21
58.1076
  0
LINE
  8
0
 10
655.005
 20
58.1076
 11
654.913
 21
58.4825
  0
LINE
  8
0
 10
654.913
 20
58.4825
 11
654.81
 21
58.85
  0
LINE
  8
0
 10
654.81
 20
58.85
 11
654.697
 21
59.2099
  0
LINE
  8
0
 10
654.697
 20
59.2099
 11
654.573
 21
59.5623
  0
LINE
  8
0
 10
654.573
 20
59.5623
 11
654.438
 21
59.9073
  0
LINE
  8
0
 10
654.438
 20
59.9073
 11
654.292
 21
60.2447
  0
LINE
  8
0
 10
654.292
 20
60.2447
 11
654.136
 21
60.5746
  0
LINE
  8
0
 10
654.136
 20
60.5746
 11
653.968
 21
60.8971
  0
LINE
  8
0
 10
653.968
 20
60.8971
 11
653.79
 21
61.212
  0
LINE
  8
0
 10
653.79
 20
61.212
 11
653.602
 21
61.5188
  0
LINE
  8
0
 10
653.602
 20
61.5188
 11
653.403
 21
61.817
  0
LINE
  8
0
 10
653.403
 20
61.817
 11
653.194
 21
62.1064
  0
LINE
  8
0
 10
653.194
 20
62.1064
 11
652.975
 21
62.3872
  0
LINE
  8
0
 10
652.975
 20
62.3872
 11
652.746
 21
62.6593
  0
LINE
  8
0
 10
652.746
 20
62.6593
 11
652.507
 21
62.9227
  0
LINE
  8
0
 10
652.507
 20
62.9227
 11
652.258
 21
63.1774
  0
LINE
  8
0
 10
652.258
 20
63.1774
 11
651.999
 21
63.4235
  0
LINE
  8
0
 10
651.999
 20
63.4235
 11
651.73
 21
63.6608
  0
LINE
  8
0
 10
651.73
 20
63.6608
 11
651.45
 21
63.8895
  0
LINE
  8
0
 10
651.45
 20
63.8895
 11
651.161
 21
64.1095
  0
LINE
  8
0
 10
651.161
 20
64.1095
 11
650.861
 21
64.3208
  0
LINE
  8
0
 10
650.861
 20
64.3208
 11
650.552
 21
64.5234
  0
LINE
  8
0
 10
650.552
 20
64.5234
 11
650.232
 21
64.7173
  0
LINE
  8
0
 10
650.232
 20
64.7173
 11
649.902
 21
64.9026
  0
LINE
  8
0
 10
649.902
 20
64.9026
 11
649.562
 21
65.0791
  0
LINE
  8
0
 10
649.562
 20
65.0791
 11
649.212
 21
65.247
  0
LINE
  8
0
 10
649.212
 20
65.247
 11
648.853
 21
65.4057
  0
LINE
  8
0
 10
648.853
 20
65.4057
 11
648.486
 21
65.5548
  0
LINE
  8
0
 10
648.486
 20
65.5548
 11
648.11
 21
65.6943
  0
LINE
  8
0
 10
648.11
 20
65.6943
 11
647.727
 21
65.8242
  0
LINE
  8
0
 10
647.727
 20
65.8242
 11
647.335
 21
65.9444
  0
LINE
  8
0
 10
647.335
 20
65.9444
 11
646.935
 21
66.055
  0
LINE
  8
0
 10
646.935
 20
66.055
 11
646.526
 21
66.156
  0
LINE
  8
0
 10
646.526
 20
66.156
 11
646.11
 21
66.2474
  0
LINE
  8
0
 10
646.11
 20
66.2474
 11
645.685
 21
66.3292
  0
LINE
  8
0
 10
645.685
 20
66.3292
 11
645.252
 21
66.4013
  0
LINE
  8
0
 10
645.252
 20
66.4013
 11
644.811
 21
66.4638
  0
LINE
  8
0
 10
644.811
 20
66.4638
 11
644.361
 21
66.5168
  0
LINE
  8
0
 10
644.361
 20
66.5168
 11
643.904
 21
66.56
  0
LINE
  8
0
 10
643.904
 20
66.56
 11
643.438
 21
66.5937
  0
LINE
  8
0
 10
643.438
 20
66.5937
 11
642.964
 21
66.6178
  0
LINE
  8
0
 10
642.964
 20
66.6178
 11
642.482
 21
66.6322
  0
LINE
  8
0
 10
642.482
 20
66.6322
 11
641.991
 21
66.637
  0
LINE
  8
0
 10
641.991
 20
66.637
 11
628.8
 21
66.637
  0
LINE
  8
0
 10
628.8
 20
66.637
 11
628.8
 21
84.539
  0
LINE
  8
0
 10
628.8
 20
84.539
 11
641.991
 21
84.539
  0
LINE
  8
0
 10
641.991
 20
84.539
 11
642.66
 21
84.5491
  0
LINE
  8
0
 10
642.66
 20
84.5491
 11
643.311
 21
84.5793
  0
LINE
  8
0
 10
643.311
 20
84.5793
 11
643.944
 21
84.6298
  0
LINE
  8
0
 10
643.944
 20
84.6298
 11
644.559
 21
84.7004
  0
LINE
  8
0
 10
644.559
 20
84.7004
 11
645.156
 21
84.7912
  0
LINE
  8
0
 10
645.156
 20
84.7912
 11
645.735
 21
84.9022
  0
LINE
  8
0
 10
645.735
 20
84.9022
 11
646.295
 21
85.0334
  0
LINE
  8
0
 10
646.295
 20
85.0334
 11
646.838
 21
85.1848
  0
LINE
  8
0
 10
646.838
 20
85.1848
 11
647.362
 21
85.3563
  0
LINE
  8
0
 10
647.362
 20
85.3563
 11
647.869
 21
85.548
  0
LINE
  8
0
 10
647.869
 20
85.548
 11
648.357
 21
85.7599
  0
LINE
  8
0
 10
648.357
 20
85.7599
 11
648.828
 21
85.9919
  0
LINE
  8
0
 10
648.828
 20
85.9919
 11
649.28
 21
86.2442
  0
LINE
  8
0
 10
649.28
 20
86.2442
 11
649.714
 21
86.5166
  0
LINE
  8
0
 10
649.714
 20
86.5166
 11
650.13
 21
86.8092
  0
LINE
  8
0
 10
650.13
 20
86.8092
 11
650.528
 21
87.122
  0
LINE
  8
0
 10
650.528
 20
87.122
 11
650.908
 21
87.455
  0
LINE
  8
0
 10
650.908
 20
87.455
 11
651.268
 21
87.8063
  0
LINE
  8
0
 10
651.268
 20
87.8063
 11
651.606
 21
88.174
  0
LINE
  8
0
 10
651.606
 20
88.174
 11
651.923
 21
88.5581
  0
LINE
  8
0
 10
651.923
 20
88.5581
 11
652.217
 21
88.9587
  0
LINE
  8
0
 10
652.217
 20
88.9587
 11
652.49
 21
89.3757
  0
LINE
  8
0
 10
652.49
 20
89.3757
 11
652.741
 21
89.8091
  0
LINE
  8
0
 10
652.741
 20
89.8091
 11
652.97
 21
90.2589
  0
LINE
  8
0
 10
652.97
 20
90.2589
 11
653.177
 21
90.7252
  0
LINE
  8
0
 10
653.177
 20
90.7252
 11
653.363
 21
91.2079
  0
LINE
  8
0
 10
653.363
 20
91.2079
 11
653.526
 21
91.707
  0
LINE
  8
0
 10
653.526
 20
91.707
 11
653.668
 21
92.2226
  0
LINE
  8
0
 10
653.668
 20
92.2226
 11
653.788
 21
92.7546
  0
LINE
  8
0
 10
653.788
 20
92.7546
 11
653.887
 21
93.303
  0
LINE
  8
0
 10
653.887
 20
93.303
 11
653.963
 21
93.8679
  0
LINE
  8
0
 10
653.963
 20
93.8679
 11
654.017
 21
94.4491
  0
LINE
  8
0
 10
654.017
 20
94.4491
 11
654.05
 21
95.0469
  0
LINE
  8
0
 10
654.05
 20
95.0469
 11
654.061
 21
95.661
  0
LINE
  8
0
 10
654.061
 20
95.661
 11
654.05
 21
96.2122
  0
LINE
  8
0
 10
654.05
 20
96.2122
 11
654.017
 21
96.7488
  0
LINE
  8
0
 10
654.017
 20
96.7488
 11
653.963
 21
97.2709
  0
LINE
  8
0
 10
653.963
 20
97.2709
 11
653.887
 21
97.7784
  0
LINE
  8
0
 10
653.887
 20
97.7784
 11
653.788
 21
98.2714
  0
LINE
  8
0
 10
653.788
 20
98.2714
 11
653.668
 21
98.7498
  0
LINE
  8
0
 10
653.668
 20
98.7498
 11
653.526
 21
99.2137
  0
LINE
  8
0
 10
653.526
 20
99.2137
 11
653.363
 21
99.663
  0
LINE
  8
0
 10
653.363
 20
99.663
 11
653.177
 21
100.098
  0
LINE
  8
0
 10
653.177
 20
100.098
 11
652.97
 21
100.518
  0
LINE
  8
0
 10
652.97
 20
100.518
 11
652.741
 21
100.924
  0
LINE
  8
0
 10
652.741
 20
100.924
 11
652.49
 21
101.315
  0
LINE
  8
0
 10
652.49
 20
101.315
 11
652.217
 21
101.691
  0
LINE
  8
0
 10
652.217
 20
101.691
 11
651.923
 21
102.053
  0
LINE
  8
0
 10
651.923
 20
102.053
 11
651.606
 21
102.401
  0
LINE
  8
0
 10
651.606
 20
102.401
 11
651.268
 21
102.734
  0
LINE
  8
0
 10
651.268
 20
102.734
 11
650.908
 21
103.052
  0
LINE
  8
0
 10
650.908
 20
103.052
 11
650.528
 21
103.354
  0
LINE
  8
0
 10
650.528
 20
103.354
 11
650.13
 21
103.638
  0
LINE
  8
0
 10
650.13
 20
103.638
 11
649.714
 21
103.903
  0
LINE
  8
0
 10
649.714
 20
103.903
 11
649.28
 21
104.15
  0
LINE
  8
0
 10
649.28
 20
104.15
 11
648.828
 21
104.379
  0
LINE
  8
0
 10
648.828
 20
104.379
 11
648.357
 21
104.59
  0
LINE
  8
0
 10
648.357
 20
104.59
 11
647.869
 21
104.782
  0
LINE
  8
0
 10
647.869
 20
104.782
 11
647.362
 21
104.956
  0
LINE
  8
0
 10
647.362
 20
104.956
 11
646.838
 21
105.111
  0
LINE
  8
0
 10
646.838
 20
105.111
 11
646.295
 21
105.249
  0
LINE
  8
0
 10
646.295
 20
105.249
 11
645.735
 21
105.368
  0
LINE
  8
0
 10
645.735
 20
105.368
 11
645.156
 21
105.468
  0
LINE
  8
0
 10
645.156
 20
105.468
 11
644.559
 21
105.551
  0
LINE
  8
0
 10
644.559
 20
105.551
 11
643.944
 21
105.615
  0
LINE
  8
0
 10
643.944
 20
105.615
 11
643.311
 21
105.66
  0
LINE
  8
0
 10
643.311
 20
105.66
 11
642.66
 21
105.688
  0
LINE
  8
0
 10
642.66
 20
105.688
 11
641.991
 21
105.697
  0
LINE
  8
0
 10
641.991
 20
105.697
 11
628.8
 21
105.697
  0
LINE
  8
0
 10
628.8
 20
105.697
 11
628.8
 21
123.599
  0
LINE
  8
0
 10
628.8
 20
123.599
 11
642.601
 21
123.599
  0
LINE
  8
0
 10
642.601
 20
123.599
 11
643.716
 21
123.588
  0
LINE
  8
0
 10
643.716
 20
123.588
 11
644.812
 21
123.555
  0
LINE
  8
0
 10
644.812
 20
123.555
 11
645.889
 21
123.501
  0
LINE
  8
0
 10
645.889
 20
123.501
 11
646.946
 21
123.424
  0
LINE
  8
0
 10
646.946
 20
123.424
 11
647.985
 21
123.326
  0
LINE
  8
0
 10
647.985
 20
123.326
 11
649.004
 21
123.206
  0
LINE
  8
0
 10
649.004
 20
123.206
 11
650.003
 21
123.064
  0
LINE
  8
0
 10
650.003
 20
123.064
 11
650.984
 21
122.901
  0
LINE
  8
0
 10
650.984
 20
122.901
 11
651.945
 21
122.715
  0
LINE
  8
0
 10
651.945
 20
122.715
 11
652.887
 21
122.508
  0
LINE
  8
0
 10
652.887
 20
122.508
 11
653.81
 21
122.279
  0
LINE
  8
0
 10
653.81
 20
122.279
 11
654.714
 21
122.028
  0
LINE
  8
0
 10
654.714
 20
122.028
 11
655.598
 21
121.755
  0
LINE
  8
0
 10
655.598
 20
121.755
 11
656.463
 21
121.461
  0
LINE
  8
0
 10
656.463
 20
121.461
 11
657.309
 21
121.144
  0
LINE
  8
0
 10
657.309
 20
121.144
 11
658.136
 21
120.806
  0
LINE
  8
0
 10
658.136
 20
120.806
 11
658.943
 21
120.446
  0
LINE
  8
0
 10
658.943
 20
120.446
 11
659.73
 21
120.065
  0
LINE
  8
0
 10
659.73
 20
120.065
 11
660.494
 21
119.665
  0
LINE
  8
0
 10
660.494
 20
119.665
 11
661.235
 21
119.244
  0
LINE
  8
0
 10
661.235
 20
119.244
 11
661.954
 21
118.805
  0
LINE
  8
0
 10
661.954
 20
118.805
 11
662.651
 21
118.345
  0
LINE
  8
0
 10
662.651
 20
118.345
 11
663.325
 21
117.865
  0
LINE
  8
0
 10
663.325
 20
117.865
 11
663.976
 21
117.366
  0
LINE
  8
0
 10
663.976
 20
117.366
 11
664.605
 21
116.848
  0
LINE
  8
0
 10
664.605
 20
116.848
 11
665.211
 21
116.309
  0
LINE
  8
0
 10
665.211
 20
116.309
 11
665.795
 21
115.751
  0
LINE
  8
0
 10
665.795
 20
115.751
 11
666.357
 21
115.173
  0
LINE
  8
0
 10
666.357
 20
115.173
 11
666.895
 21
114.575
  0
LINE
  8
0
 10
666.895
 20
114.575
 11
667.411
 21
113.958
  0
LINE
  8
0
 10
667.411
 20
113.958
 11
667.905
 21
113.321
  0
LINE
  8
0
 10
667.905
 20
113.321
 11
668.376
 21
112.664
  0
LINE
  8
0
 10
668.376
 20
112.664
 11
668.825
 21
111.987
  0
LINE
  8
0
 10
668.825
 20
111.987
 11
669.251
 21
111.291
  0
LINE
  8
0
 10
669.251
 20
111.291
 11
669.654
 21
110.577
  0
LINE
  8
0
 10
669.654
 20
110.577
 11
670.032
 21
109.846
  0
LINE
  8
0
 10
670.032
 20
109.846
 11
670.386
 21
109.098
  0
LINE
  8
0
 10
670.386
 20
109.098
 11
670.715
 21
108.334
  0
LINE
  8
0
 10
670.715
 20
108.334
 11
671.02
 21
107.553
  0
LINE
  8
0
 10
671.02
 20
107.553
 11
671.301
 21
106.755
  0
LINE
  8
0
 10
671.301
 20
106.755
 11
671.557
 21
105.941
  0
LINE
  8
0
 10
671.557
 20
105.941
 11
671.789
 21
105.11
  0
LINE
  8
0
 10
671.789
 20
105.11
 11
671.996
 21
104.262
  0
LINE
  8
0
 10
671.996
 20
104.262
 11
672.179
 21
103.398
  0
LINE
  8
0
 10
672.179
 20
103.398
 11
672.338
 21
102.517
  0
LINE
  8
0
 10
672.338
 20
102.517
 11
672.472
 21
101.619
  0
LINE
  8
0
 10
672.472
 20
101.619
 11
672.582
 21
100.705
  0
LINE
  8
0
 10
672.582
 20
100.705
 11
672.667
 21
99.7739
  0
LINE
  8
0
 10
672.667
 20
99.7739
 11
672.728
 21
98.8262
  0
LINE
  8
0
 10
672.728
 20
98.8262
 11
672.765
 21
97.862
  0
LINE
  8
0
 10
672.765
 20
97.862
 11
672.777
 21
96.881
  0
LINE
  8
0
 10
672.777
 20
96.881
 11
672.769
 21
96.2074
  0
LINE
  8
0
 10
672.769
 20
96.2074
 11
672.746
 21
95.5431
  0
LINE
  8
0
 10
672.746
 20
95.5431
 11
672.706
 21
94.8878
  0
LINE
  8
0
 10
672.706
 20
94.8878
 11
672.651
 21
94.2417
  0
LINE
  8
0
 10
672.651
 20
94.2417
 11
672.581
 21
93.6048
  0
LINE
  8
0
 10
672.581
 20
93.6048
 11
672.494
 21
92.977
  0
LINE
  8
0
 10
672.494
 20
92.977
 11
672.392
 21
92.3583
  0
LINE
  8
0
 10
672.392
 20
92.3583
 11
672.274
 21
91.7488
  0
LINE
  8
0
 10
672.274
 20
91.7488
 11
672.14
 21
91.1485
  0
LINE
  8
0
 10
672.14
 20
91.1485
 11
671.991
 21
90.5573
  0
LINE
  8
0
 10
671.991
 20
90.5573
 11
671.826
 21
89.9752
  0
LINE
  8
0
 10
671.826
 20
89.9752
 11
671.645
 21
89.4023
  0
LINE
  8
0
 10
671.645
 20
89.4023
 11
671.448
 21
88.8385
  0
LINE
  8
0
 10
671.448
 20
88.8385
 11
671.236
 21
88.2839
  0
LINE
  8
0
 10
671.236
 20
88.2839
 11
671.008
 21
87.7385
  0
LINE
  8
0
 10
671.008
 20
87.7385
 11
670.765
 21
87.2021
  0
LINE
  8
0
 10
670.765
 20
87.2021
 11
670.505
 21
86.675
  0
LINE
  8
0
 10
670.505
 20
86.675
 11
670.231
 21
86.158
  0
LINE
  8
0
 10
670.231
 20
86.158
 11
669.942
 21
85.6521
  0
LINE
  8
0
 10
669.942
 20
85.6521
 11
669.639
 21
85.1572
  0
LINE
  8
0
 10
669.639
 20
85.1572
 11
669.322
 21
84.6733
  0
LINE
  8
0
 10
669.322
 20
84.6733
 11
668.99
 21
84.2004
  0
LINE
  8
0
 10
668.99
 20
84.2004
 11
668.644
 21
83.7386
  0
LINE
  8
0
 10
668.644
 20
83.7386
 11
668.284
 21
83.2878
  0
LINE
  8
0
 10
668.284
 20
83.2878
 11
667.909
 21
82.848
  0
LINE
  8
0
 10
667.909
 20
82.848
 11
667.521
 21
82.4192
  0
LINE
  8
0
 10
667.521
 20
82.4192
 11
667.117
 21
82.0015
  0
LINE
  8
0
 10
667.117
 20
82.0015
 11
666.7
 21
81.5948
  0
LINE
  8
0
 10
666.7
 20
81.5948
 11
666.268
 21
81.1991
  0
LINE
  8
0
 10
666.268
 20
81.1991
 11
665.822
 21
80.8144
  0
LINE
  8
0
 10
665.822
 20
80.8144
 11
665.361
 21
80.4408
  0
LINE
  8
0
 10
665.361
 20
80.4408
 11
664.887
 21
80.0782
  0
LINE
  8
0
 10
664.887
 20
80.0782
 11
664.398
 21
79.7266
  0
LINE
  8
0
 10
664.398
 20
79.7266
 11
663.894
 21
79.386
  0
LINE
  8
0
 10
663.894
 20
79.386
 11
663.377
 21
79.0573
  0
LINE
  8
0
 10
663.377
 20
79.0573
 11
662.849
 21
78.7412
  0
LINE
  8
0
 10
662.849
 20
78.7412
 11
662.307
 21
78.4378
  0
LINE
  8
0
 10
662.307
 20
78.4378
 11
661.754
 21
78.1471
  0
LINE
  8
0
 10
661.754
 20
78.1471
 11
661.189
 21
77.869
  0
LINE
  8
0
 10
661.189
 20
77.869
 11
660.611
 21
77.6036
  0
LINE
  8
0
 10
660.611
 20
77.6036
 11
660.021
 21
77.3509
  0
LINE
  8
0
 10
660.021
 20
77.3509
 11
659.419
 21
77.1108
  0
LINE
  8
0
 10
659.419
 20
77.1108
 11
658.805
 21
76.8834
  0
LINE
  8
0
 10
658.805
 20
76.8834
 11
658.178
 21
76.6686
  0
LINE
  8
0
 10
658.178
 20
76.6686
 11
657.539
 21
76.4665
  0
LINE
  8
0
 10
657.539
 20
76.4665
 11
656.889
 21
76.2771
  0
LINE
  8
0
 10
656.889
 20
76.2771
 11
656.225
 21
76.1004
  0
LINE
  8
0
 10
656.225
 20
76.1004
 11
655.55
 21
75.9363
  0
LINE
  8
0
 10
655.55
 20
75.9363
 11
654.863
 21
75.7849
  0
LINE
  8
0
 10
654.863
 20
75.7849
 11
654.163
 21
75.6461
  0
LINE
  8
0
 10
654.163
 20
75.6461
 11
653.451
 21
75.52
  0
LINE
  8
0
 10
653.451
 20
75.52
 11
654.211
 21
75.4087
  0
LINE
  8
0
 10
654.211
 20
75.4087
 11
654.957
 21
75.2822
  0
LINE
  8
0
 10
654.957
 20
75.2822
 11
655.691
 21
75.1404
  0
LINE
  8
0
 10
655.691
 20
75.1404
 11
656.411
 21
74.9833
  0
LINE
  8
0
 10
656.411
 20
74.9833
 11
657.119
 21
74.811
  0
LINE
  8
0
 10
657.119
 20
74.811
 11
657.814
 21
74.6234
  0
LINE
  8
0
 10
657.814
 20
74.6234
 11
658.496
 21
74.4206
  0
LINE
  8
0
 10
658.496
 20
74.4206
 11
659.165
 21
74.2025
  0
LINE
  8
0
 10
659.165
 20
74.2025
 11
659.821
 21
73.9692
  0
LINE
  8
0
 10
659.821
 20
73.9692
 11
660.465
 21
73.7206
  0
LINE
  8
0
 10
660.465
 20
73.7206
 11
661.095
 21
73.4567
  0
LINE
  8
0
 10
661.095
 20
73.4567
 11
661.712
 21
73.1775
  0
LINE
  8
0
 10
661.712
 20
73.1775
 11
662.317
 21
72.8831
  0
LINE
  8
0
 10
662.317
 20
72.8831
 11
662.909
 21
72.5735
  0
LINE
  8
0
 10
662.909
 20
72.5735
 11
663.487
 21
72.2486
  0
LINE
  8
0
 10
663.487
 20
72.2486
 11
664.053
 21
71.9084
  0
LINE
  8
0
 10
664.053
 20
71.9084
 11
664.606
 21
71.553
  0
LINE
  8
0
 10
664.606
 20
71.553
 11
665.145
 21
71.1836
  0
LINE
  8
0
 10
665.145
 20
71.1836
 11
665.668
 21
70.8013
  0
LINE
  8
0
 10
665.668
 20
70.8013
 11
666.176
 21
70.4061
  0
LINE
  8
0
 10
666.176
 20
70.4061
 11
666.668
 21
69.9979
  0
LINE
  8
0
 10
666.668
 20
69.9979
 11
667.145
 21
69.5769
  0
LINE
  8
0
 10
667.145
 20
69.5769
 11
667.606
 21
69.1429
  0
LINE
  8
0
 10
667.606
 20
69.1429
 11
668.052
 21
68.696
  0
LINE
  8
0
 10
668.052
 20
68.696
 11
668.482
 21
68.2362
  0
LINE
  8
0
 10
668.482
 20
68.2362
 11
668.897
 21
67.7635
  0
LINE
  8
0
 10
668.897
 20
67.7635
 11
669.296
 21
67.2779
  0
LINE
  8
0
 10
669.296
 20
67.2779
 11
669.68
 21
66.7794
  0
LINE
  8
0
 10
669.68
 20
66.7794
 11
670.049
 21
66.2679
  0
LINE
  8
0
 10
670.049
 20
66.2679
 11
670.401
 21
65.7436
  0
LINE
  8
0
 10
670.401
 20
65.7436
 11
670.739
 21
65.2063
  0
LINE
  8
0
 10
670.739
 20
65.2063
 11
671.061
 21
64.6561
  0
LINE
  8
0
 10
671.061
 20
64.6561
 11
671.367
 21
64.093
  0
LINE
  8
0
 10
671.367
 20
64.093
 11
671.658
 21
63.517
  0
LINE
  8
0
 10
671.658
 20
63.517
 11
671.933
 21
62.9292
  0
LINE
  8
0
 10
671.933
 20
62.9292
 11
672.191
 21
62.3307
  0
LINE
  8
0
 10
672.191
 20
62.3307
 11
672.433
 21
61.7214
  0
LINE
  8
0
 10
672.433
 20
61.7214
 11
672.658
 21
61.1012
  0
LINE
  8
0
 10
672.658
 20
61.1012
 11
672.866
 21
60.4703
  0
LINE
  8
0
 10
672.866
 20
60.4703
 11
673.058
 21
59.8286
  0
LINE
  8
0
 10
673.058
 20
59.8286
 11
673.233
 21
59.176
  0
LINE
  8
0
 10
673.233
 20
59.176
 11
673.391
 21
58.5127
  0
LINE
  8
0
 10
673.391
 20
58.5127
 11
673.533
 21
57.8386
  0
LINE
  8
0
 10
673.533
 20
57.8386
 11
673.658
 21
57.1537
  0
LINE
  8
0
 10
673.658
 20
57.1537
 11
673.766
 21
56.458
  0
LINE
  8
0
 10
673.766
 20
56.458
 11
673.858
 21
55.7514
  0
LINE
  8
0
 10
673.858
 20
55.7514
 11
673.933
 21
55.0341
  0
LINE
  8
0
 10
673.933
 20
55.0341
 11
673.991
 21
54.3061
  0
LINE
  8
0
 10
673.991
 20
54.3061
 11
674.033
 21
53.5672
  0
LINE
  8
0
 10
674.033
 20
53.5672
 11
674.058
 21
52.8175
  0
LINE
  8
0
 10
674.058
 20
52.8175
 11
674.066
 21
52.057
  0
LINE
  8
0
 10
674.066
 20
52.057
 11
674.066
 21
51.854
  0
LINE
  8
0
 10
674.066
 20
51.854
 11
674.054
 21
50.8651
  0
LINE
  8
0
 10
674.054
 20
50.8651
 11
674.017
 21
49.8932
  0
LINE
  8
0
 10
674.017
 20
49.8932
 11
673.955
 21
48.9382
  0
LINE
  8
0
 10
673.955
 20
48.9382
 11
673.869
 21
48
  0
LINE
  8
0
 10
673.869
 20
48
 11
673.758
 21
47.0788
  0
LINE
  8
0
 10
673.758
 20
47.0788
 11
673.623
 21
46.1744
  0
LINE
  8
0
 10
673.623
 20
46.1744
 11
673.462
 21
45.287
  0
LINE
  8
0
 10
673.462
 20
45.287
 11
673.278
 21
44.4164
  0
LINE
  8
0
 10
673.278
 20
44.4164
 11
673.068
 21
43.5628
  0
LINE
  8
0
 10
673.068
 20
43.5628
 11
672.834
 21
42.726
  0
LINE
  8
0
 10
672.834
 20
42.726
 11
672.576
 21
41.9062
  0
LINE
  8
0
 10
672.576
 20
41.9062
 11
672.292
 21
41.1032
  0
LINE
  8
0
 10
672.292
 20
41.1032
 11
671.984
 21
40.3172
  0
LINE
  8
0
 10
671.984
 20
40.3172
 11
671.652
 21
39.548
  0
LINE
  8
0
 10
671.652
 20
39.548
 11
671.294
 21
38.7958
  0
LINE
  8
0
 10
671.294
 20
38.7958
 11
670.913
 21
38.0604
  0
LINE
  8
0
 10
670.913
 20
38.0604
 11
670.506
 21
37.342
  0
LINE
  8
0
 10
670.506
 20
37.342
 11
670.076
 21
36.642
  0
LINE
  8
0
 10
670.076
 20
36.642
 11
669.623
 21
35.9619
  0
LINE
  8
0
 10
669.623
 20
35.9619
 11
669.148
 21
35.3017
  0
LINE
  8
0
 10
669.148
 20
35.3017
 11
668.651
 21
34.6615
  0
LINE
  8
0
 10
668.651
 20
34.6615
 11
668.13
 21
34.0412
  0
LINE
  8
0
 10
668.13
 20
34.0412
 11
667.588
 21
33.4409
  0
LINE
  8
0
 10
667.588
 20
33.4409
 11
667.022
 21
32.8605
  0
LINE
  8
0
 10
667.022
 20
32.8605
 11
666.434
 21
32.3
  0
LINE
  8
0
 10
666.434
 20
32.3
 11
665.824
 21
31.7595
  0
LINE
  8
0
 10
665.824
 20
31.7595
 11
665.191
 21
31.2389
  0
LINE
  8
0
 10
665.191
 20
31.2389
 11
664.536
 21
30.7382
  0
LINE
  8
0
 10
664.536
 20
30.7382
 11
663.858
 21
30.2575
  0
LINE
  8
0
 10
663.858
 20
30.2575
 11
663.157
 21
29.7967
  0
LINE
  8
0
 10
663.157
 20
29.7967
 11
662.434
 21
29.3559
  0
LINE
  8
0
 10
662.434
 20
29.3559
 11
661.689
 21
28.935
  0
LINE
  8
0
 10
661.689
 20
28.935
 11
660.921
 21
28.534
  0
LINE
  8
0
 10
660.921
 20
28.534
 11
660.13
 21
28.153
  0
LINE
  8
0
 10
660.13
 20
28.153
 11
659.319
 21
27.793
  0
LINE
  8
0
 10
659.319
 20
27.793
 11
658.489
 21
27.4548
  0
LINE
  8
0
 10
658.489
 20
27.4548
 11
657.639
 21
27.1384
  0
LINE
  8
0
 10
657.639
 20
27.1384
 11
656.771
 21
26.8438
  0
LINE
  8
0
 10
656.771
 20
26.8438
 11
655.884
 21
26.571
  0
LINE
  8
0
 10
655.884
 20
26.571
 11
654.977
 21
26.3201
  0
LINE
  8
0
 10
654.977
 20
26.3201
 11
654.052
 21
26.091
  0
LINE
  8
0
 10
654.052
 20
26.091
 11
653.108
 21
25.8837
  0
LINE
  8
0
 10
653.108
 20
25.8837
 11
652.145
 21
25.6982
  0
LINE
  8
0
 10
652.145
 20
25.6982
 11
651.162
 21
25.5346
  0
LINE
  8
0
 10
651.162
 20
25.5346
 11
650.161
 21
25.3928
  0
LINE
  8
0
 10
650.161
 20
25.3928
 11
649.141
 21
25.2728
  0
LINE
  8
0
 10
649.141
 20
25.2728
 11
648.101
 21
25.1746
  0
LINE
  8
0
 10
648.101
 20
25.1746
 11
647.043
 21
25.0982
  0
LINE
  8
0
 10
647.043
 20
25.0982
 11
645.966
 21
25.0436
  0
LINE
  8
0
 10
645.966
 20
25.0436
 11
644.869
 21
25.0109
  0
LINE
  8
0
 10
644.869
 20
25.0109
 11
643.754
 21
25
  0
LINE
  8
0
 10
643.754
 20
25
 11
628.8
 21
25
  0
LINE
  8
0
 10
762.79
 20
25
 11
762.79
 21
123.599
  0
LINE
  8
0
 10
762.79
 20
123.599
 11
828.839
 21
123.599
  0
LINE
  8
0
 10
828.839
 20
123.599
 11
828.839
 21
105.697
  0
LINE
  8
0
 10
828.839
 20
105.697
 11
781.371
 21
105.697
  0
LINE
  8
0
 10
781.371
 20
105.697
 11
781.371
 21
82.912
  0
LINE
  8
0
 10
781.371
 20
82.912
 11
821.38
 21
82.912
  0
LINE
  8
0
 10
821.38
 20
82.912
 11
821.38
 21
65.009
  0
LINE
  8
0
 10
821.38
 20
65.009
 11
781.371
 21
65.009
  0
LINE
  8
0
 10
781.371
 20
65.009
 11
781.371
 21
42.903
  0
LINE
  8
0
 10
781.371
 20
42.903
 11
828.839
 21
42.903
  0
LINE
  8
0
 10
828.839
 20
42.903
 11
828.839
 21
25
  0
LINE
  8
0
 10
828.839
 20
25
 11
762.79
 21
25
  0
LINE
  8
0
 10
929.994
 20
25
 11
929.994
 21
105.697
  0
LINE
  8
0
 10
929.994
 20
105.697
 11
903.141
 21
105.697
  0
LINE
  8
0
 10
903.141
 20
105.697
 11
903.141
 21
123.599
  0
LINE
  8
0
 10
903.141
 20
123.599
 11
975.429
 21
123.599
  0
LINE
  8
0
 10
975.429
 20
123.599
 11
975.429
 21
105.697
  0
LINE
  8
0
 10
975.429
 20
105.697
 11
948.575
 21
105.697
  0
LINE
  8
0
 10
948.575
 20
105.697
 11
948.575
 21
25
  0
LINE
  8
0
 10
948.575
 20
25
 11
929.994
 21
25
  0
LINE
  8
0
 10
1389.81
 20
25
 11
1389.81
 21
105.697
  0
LINE
  8
0
 10
1389.81
 20
105.697
 11
1362.96
 21
105.697
  0
LINE
  8
0
 10
1362.96
 20
105.697
 11
1362.96
 21
123.599
  0
LINE
  8
0
 10
1362.96
 20
123.599
 11
1435.24
 21
123.599
  0
LINE
  8
0
 10
1435.24
 20
123.599
 11
1435.24
 21
105.697
  0
LINE
  8
0
 10
1435.24
 20
105.697
 11
1408.39
 21
105.697
  0
LINE
  8
0
 10
1408.39
 20
105.697
 11
1408.39
 21
25
  0
LINE
  8
0
 10
1408.39
 20
25
 11
1389.81
 21
25
  0
LINE
  8
0
 10
1652.82
 20
25
 11
1652.82
 21
123.599
  0
LINE
  8
0
 10
1652.82
 20
123.599
 11
1718.87
 21
123.599
  0
LINE
  8
0
 10
1718.87
 20
123.599
 11
1718.87
 21
105.697
  0
LINE
  8
0
 10
1718.87
 20
105.697
 11
1671.4
 21
105.697
  0
LINE
  8
0
 10
1671.4
 20
105.697
 11
1671.4
 21
82.912
  0
LINE
  8
0
 10
1671.4
 20
82.912
 11
1711.41
 21
82.912
  0
LINE
  8
0
 10
1711.41
 20
82.912
 11
1711.41
 21
65.009
  0
LINE
  8
0
 10
1711.41
 20
65.009
 11
1671.4
 21
65.009
  0
LINE
  8
0
 10
1671.4
 20
65.009
 11
1671.4
 21
42.903
  0
LINE
  8
0
 10
1671.4
 20
42.903
 11
1718.87
 21
42.903
  0
LINE
  8
0
 10
1718.87
 20
42.903
 11
1718.87
 21
25
  0
LINE
  8
0
 10
1718.87
 20
25
 11
1652.82
 21
25
  0
LINE
  8
0
 10
291.385
 20
25
 11
291.385
 21
123.599
  0
LINE
  8
0
 10
291.385
 20
123.599
 11
309.966
 21
123.599
  0
LINE
  8
0
 10
309.966
 20
123.599
 11
309.966
 21
42.903
  0
LINE
  8
0
 10
309.966
 20
42.903
 11
357.434
 21
42.903
  0
LINE
  8
0
 10
357.434
 20
42.903
 11
357.434
 21
25
  0
LINE
  8
0
 10
357.434
 20
25
 11
291.385
 21
25
  0
LINE
  8
0
 10
1272
 20
121.621
 11
1273.51
 21
120.86
  0
LINE
  8
0
 10
1273.51
 20
120.86
 11
1275.73
 21
119.602
  0
LINE
  8
0
 10
1275.73
 20
119.602
 11
1277.89
 21
118.236
  0
LINE
  8
0
 10
1277.89
 20
118.236
 11
1279.98
 21
116.767
  0
LINE
  8
0
 10
1279.98
 20
116.767
 11
1281.99
 21
115.197
  0
LINE
  8
0
 10
1281.99
 20
115.197
 11
1283.92
 21
113.529
  0
LINE
  8
0
 10
1283.92
 20
113.529
 11
1284
 21
113.454
  0
LINE
  8
0
 10
1284
 20
113.454
 11
1284
 21
36.5457
  0
LINE
  8
0
 10
1284
 20
36.5457
 11
1283.92
 21
36.4705
  0
LINE
  8
0
 10
1283.92
 20
36.4705
 11
1281.99
 21
34.8035
  0
LINE
  8
0
 10
1281.99
 20
34.8035
 11
1279.98
 21
33.2332
  0
LINE
  8
0
 10
1279.98
 20
33.2332
 11
1277.89
 21
31.7636
  0
LINE
  8
0
 10
1277.89
 20
31.7636
 11
1275.73
 21
30.3981
  0
LINE
  8
0
 10
1275.73
 20
30.3981
 11
1273.51
 21
29.1401
  0
LINE
  8
0
 10
1273.51
 20
29.1401
 11
1272
 21
28.3787
  0
LINE
  8
0
 10
1272
 20
28.3787
 11
1272
 21
121.621
  0
LINE
  8
0
 10
451.487
 20
29.1401
 11
449.267
 21
30.3981
  0
LINE
  8
0
 10
449.267
 20
30.3981
 11
447.11
 21
31.7636
  0
LINE
  8
0
 10
447.11
 20
31.7636
 11
445.024
 21
33.2332
  0
LINE
  8
0
 10
445.024
 20
33.2332
 11
443.012
 21
34.8035
  0
LINE
  8
0
 10
443.012
 20
34.8035
 11
441.079
 21
36.4705
  0
LINE
  8
0
 10
441.079
 20
36.4705
 11
439.23
 21
38.2304
  0
LINE
  8
0
 10
439.23
 20
38.2304
 11
439
 21
38.4725
  0
LINE
  8
0
 10
439
 20
38.4725
 11
439
 21
111.527
  0
LINE
  8
0
 10
439
 20
111.527
 11
439.23
 21
111.77
  0
LINE
  8
0
 10
439.23
 20
111.77
 11
441.079
 21
113.529
  0
LINE
  8
0
 10
441.079
 20
113.529
 11
443.012
 21
115.197
  0
LINE
  8
0
 10
443.012
 20
115.197
 11
445.024
 21
116.767
  0
LINE
  8
0
 10
445.024
 20
116.767
 11
447.11
 21
118.236
  0
LINE
  8
0
 10
447.11
 20
118.236
 11
449.267
 21
119.602
  0
LINE
  8
0
 10
449.267
 20
119.602
 11
451.487
 21
120.86
  0
LINE
  8
0
 10
451.487
 20
120.86
 11
452
 21
121.118
  0
LINE
  8
0
 10
452
 20
121.118
 11
452
 21
28.882
  0
LINE
  8
0
 10
452
 20
28.882
 11
451.487
 21
29.1401
  0
LINE
  8
0
 10
1288
 20
109.376
 11
1289.2
 21
107.988
  0
LINE
  8
0
 10
1289.2
 20
107.988
 11
1290.77
 21
105.976
  0
LINE
  8
0
 10
1290.77
 20
105.976
 11
1292.24
 21
103.89
  0
LINE
  8
0
 10
1292.24
 20
103.89
 11
1293.6
 21
101.733
  0
LINE
  8
0
 10
1293.6
 20
101.733
 11
1294.86
 21
99.5126
  0
LINE
  8
0
 10
1294.86
 20
99.5126
 11
1296.01
 21
97.2329
  0
LINE
  8
0
 10
1296.01
 20
97.2329
 11
1297.04
 21
94.8995
  0
LINE
  8
0
 10
1297.04
 20
94.8995
 11
1297.96
 21
92.5183
  0
LINE
  8
0
 10
1297.96
 20
92.5183
 11
1298.76
 21
90.0948
  0
LINE
  8
0
 10
1298.76
 20
90.0948
 11
1299.44
 21
87.635
  0
LINE
  8
0
 10
1299.44
 20
87.635
 11
1300
 21
85.1447
  0
LINE
  8
0
 10
1300
 20
85.1447
 11
1300.44
 21
82.63
  0
LINE
  8
0
 10
1300.44
 20
82.63
 11
1300.75
 21
80.0969
  0
LINE
  8
0
 10
1300.75
 20
80.0969
 11
1300.94
 21
77.5515
  0
LINE
  8
0
 10
1300.94
 20
77.5515
 11
1301
 21
75
  0
LINE
  8
0
 10
1301
 20
75
 11
1300.94
 21
72.4485
  0
LINE
  8
0
 10
1300.94
 20
72.4485
 11
1300.75
 21
69.9031
  0
LINE
  8
0
 10
1300.75
 20
69.9031
 11
1300.44
 21
67.37
  0
LINE
  8
0
 10
1300.44
 20
67.37
 11
1300
 21
64.8553
  0
LINE
  8
0
 10
1300
 20
64.8553
 11
1299.44
 21
62.365
  0
LINE
  8
0
 10
1299.44
 20
62.365
 11
1298.76
 21
59.9052
  0
LINE
  8
0
 10
1298.76
 20
59.9052
 11
1297.96
 21
57.4817
  0
LINE
  8
0
 10
1297.96
 20
57.4817
 11
1297.04
 21
55.1005
  0
LINE
  8
0
 10
1297.04
 20
55.1005
 11
1296.01
 21
52.7671
  0
LINE
  8
0
 10
1296.01
 20
52.7671
 11
1294.86
 21
50.4874
  0
LINE
  8
0
 10
1294.86
 20
50.4874
 11
1293.6
 21
48.2666
  0
LINE
  8
0
 10
1293.6
 20
48.2666
 11
1292.24
 21
46.1103
  0
LINE
  8
0
 10
1292.24
 20
46.1103
 11
1290.77
 21
44.0236
  0
LINE
  8
0
 10
1290.77
 20
44.0236
 11
1289.2
 21
42.0116
  0
LINE
  8
0
 10
1289.2
 20
42.0116
 11
1288
 21
40.6244
  0
LINE
  8
0
 10
1288
 20
40.6244
 11
1288
 21
109.376
  0
LINE
  8
0
 10
434.233
 20
44.0236
 11
432.764
 21
46.1103
  0
LINE
  8
0
 10
432.764
 20
46.1103
 11
431.398
 21
48.2666
  0
LINE
  8
0
 10
431.398
 20
48.2666
 11
430.14
 21
50.4874
  0
LINE
  8
0
 10
430.14
 20
50.4874
 11
428.993
 21
52.7671
  0
LINE
  8
0
 10
428.993
 20
52.7671
 11
427.958
 21
55.1005
  0
LINE
  8
0
 10
427.958
 20
55.1005
 11
427.04
 21
57.4817
  0
LINE
  8
0
 10
427.04
 20
57.4817
 11
426.239
 21
59.9052
  0
LINE
  8
0
 10
426.239
 20
59.9052
 11
425.558
 21
62.365
  0
LINE
  8
0
 10
425.558
 20
62.365
 11
424.999
 21
64.8553
  0
LINE
  8
0
 10
424.999
 20
64.8553
 11
424.563
 21
67.37
  0
LINE
  8
0
 10
424.563
 20
67.37
 11
424.25
 21
69.9031
  0
LINE
  8
0
 10
424.25
 20
69.9031
 11
424.063
 21
72.4485
  0
LINE
  8
0
 10
424.063
 20
72.4485
 11
424
 21
75
  0
LINE
  8
0
 10
424
 20
75
 11
424.063
 21
77.5515
  0
LINE
  8
0
 10
424.063
 20
77.5515
 11
424.25
 21
80.0969
  0
LINE
  8
0
 10
424.25
 20
80.0969
 11
424.563
 21
82.63
  0
LINE
  8
0
 10
424.563
 20
82.63
 11
424.999
 21
85.1447
  0
LINE
  8
0
 10
424.999
 20
85.1447
 11
425.558
 21
87.635
  0
LINE
  8
0
 10
425.558
 20
87.635
 11
426.239
 21
90.0948
  0
LINE
  8
0
 10
426.239
 20
90.0948
 11
427.04
 21
92.5183
  0
LINE
  8
0
 10
427.04
 20
92.5183
 11
427.958
 21
94.8995
  0
LINE
  8
0
 10
427.958
 20
94.8995
 11
428.993
 21
97.2329
  0
LINE
  8
0
 10
428.993
 20
97.2329
 11
430.14
 21
99.5126
  0
LINE
  8
0
 10
430.14
 20
99.5126
 11
431.398
 21
101.733
  0
LINE
  8
0
 10
431.398
 20
101.733
 11
432.764
 21
103.89
  0
LINE
  8
0
 10
432.764
 20
103.89
 11
434.233
 21
105.976
  0
LINE
  8
0
 10
434.233
 20
105.976
 11
435
 21
106.959
  0
LINE
  8
0
 10
435
 20
106.959
 11
435
 21
43.0411
  0
LINE
  8
0
 10
435
 20
43.0411
 11
434.233
 21
44.0236
  0
ENDSEC
  0
SECTION
  2
OBJECTS
  0
DICTIONARY
  0
ENDSEC
  0
EOF
